<svg id="Capa_1" enable-background="new 0 0 512 512" height="35" viewBox="0 0 512 512" width="35" xmlns="http://www.w3.org/2000/svg"><g><g><path d="m263.569 57.336h-239.986v-44.167h239.986c3.314 0 6 2.686 6 6v32.167c0 3.314-2.686 6-6 6z" fill="#9c9c9c"/><path d="m447.844 119.813h-177.522c-31.29 0-56.656 25.366-56.656 56.656v190.867h31.287c0-13.594 11.02-24.614 24.614-24.614h.002 177.957.002c13.594 0 24.614 11.02 24.614 24.614h32.358v-190.867c0-31.29-25.366-56.656-56.656-56.656z" fill="#d8e8f0"/><path d="m319.424 172.586v-18.885c0-2.92 2.367-5.288 5.288-5.288h68.742c2.92 0 5.288 2.367 5.288 5.288v18.885c0 2.92-2.367 5.288-5.288 5.288h-68.742c-2.92 0-5.288-2.367-5.288-5.288z" fill="#9c9c9c"/><path d="m243.883 297.21v-77.556c0-7.092 5.75-12.842 12.842-12.842h204.716c7.092 0 12.842 5.75 12.842 12.842v77.556c0 7.092-5.75 12.842-12.842 12.842h-204.716c-7.092 0-12.842-5.749-12.842-12.842z" fill="#99e6fc"/><circle cx="447.529" cy="367.336" fill="#fec165" r="24.614"/><path d="m422.915 367.336c0-13.594 11.02-24.614 24.614-24.614h-177.96c13.593.001 24.612 11.021 24.612 24.614 0 13.592-11.018 24.612-24.61 24.614h177.959c-13.594 0-24.615-11.02-24.615-24.614z" fill="#838383"/><path d="m472.143 367.336c0 13.594-11.02 24.614-24.614 24.614-.001 0-.002 0-.004 0-2.426 0-180.35 0-177.959 0-13.594 0-24.614-11.02-24.614-24.614h-31.287v41.28c0 17.121 13.879 31 31 31h228.835c17.121 0 31-13.879 31-31 0-5.014 0-37.269 0-41.28z" fill="#0290cf"/><path d="m39.667 13.169v381h-32.167v-377c0-2.209 1.791-4 4-4h28.167z" fill="#5a5a5a"/><path d="m177.682 159.998h-103.736c-3.866 0-7-3.134-7-7v-47.792c0-3.866 3.134-7 7-7h103.736c3.866 0 7 3.134 7 7v47.792c0 3.866-3.134 7-7 7z" fill="#d8e8f0"/><circle cx="269.567" cy="367.336" fill="#fec165" r="24.614"/><path d="m498.5 466.831c-11.777 0-269.427 0-278.833 0-3.314 0-6 2.687-6 6v20c0 3.313 2.686 6 6 6h278.833c3.314 0 6-2.687 6-6v-20c0-3.314-2.686-6-6-6z" fill="#838383"/><path d="m284.347 472.831v20c0 3.314-2.686 6-6 6h-30.333c-3.314 0-6-2.686-6-6v-20c0-3.314 2.686-6 6-6h30.333c3.313 0 6 2.686 6 6z" fill="#5a5a5a"/><path d="m476.154 472.831v20c0 3.314-2.686 6-6 6h-30.334c-3.314 0-6-2.686-6-6v-20c0-3.314 2.686-6 6-6h30.333c3.314 0 6.001 2.686 6.001 6z" fill="#5a5a5a"/><path d="m206.667 421.169h-199.167v-54h199.167c3.866 0 7 3.134 7 7v40c0 3.866-3.134 7-7 7z" fill="#acacac"/><path d="m7.5 421.169v69.661c0 4.419 3.582 8 8 8h152.795c4.418 0 8-3.581 8-8v-69.661z" fill="#9c9c9c"/><path d="m7.5 421.169h168.795v28.347h-168.795z" fill="#838383"/><g><g><path d="m447.844 119.813h-26.079c29.356 2.121 52.518 26.592 52.518 56.489v190.867h-2.145c0 .056.004.111.004.167h32.358v-190.867c0-31.291-25.366-56.656-56.656-56.656z" fill="#bad6e5"/></g></g><path d="m473.5 439.616c17.121 0 31-13.879 31-31 0-5.014 0-37.269 0-41.28h-30.216v41.113c0 17.121-13.879 31-31 31z" fill="#017bae"/><path d="m461.441 206.813h-204.716c-6.583 0-12.001 4.956-12.747 11.339h194.786c7.092 0 12.842 5.75 12.842 12.842v77.555c0 .51-.038 1.01-.095 1.503h9.93c7.092 0 12.842-5.75 12.842-12.842v-77.556c0-7.092-5.749-12.841-12.842-12.841z" fill="#62dbfb"/><g><path d="m151.031 57.336h15v40.87h-15z" fill="#acacac"/></g><g><path d="m85.597 57.336h15v40.87h-15z" fill="#acacac"/></g><g fill="#838383"><path d="m85.597 57.336h15v17.008h-15z"/><path d="m151.031 57.336h15v17.008h-15z"/></g></g><g><path d="m393.455 185.374c7.051 0 12.788-5.736 12.788-12.788v-18.885c0-7.052-5.736-12.788-12.788-12.788h-68.743c-7.051 0-12.788 5.736-12.788 12.788v18.885c0 7.052 5.736 12.788 12.788 12.788zm-66.531-29.461h64.318v14.461h-64.318z"/><path d="m236.383 219.654v77.556c0 11.217 9.125 20.342 20.342 20.342h204.716c11.217 0 20.342-9.125 20.342-20.342v-77.556c0-11.217-9.125-20.342-20.342-20.342h-204.716c-11.216.001-20.342 9.126-20.342 20.342zm230.401 0v77.556c0 2.945-2.396 5.342-5.342 5.342h-204.717c-2.945 0-5.342-2.396-5.342-5.342v-77.556c0-2.945 2.396-5.342 5.342-5.342h204.716c2.946.001 5.343 2.397 5.343 5.342z"/><path d="m447.844 112.313h-177.522c-35.375 0-64.156 28.78-64.156 64.156v9.447c0 4.143 3.358 7.5 7.5 7.5s7.5-3.357 7.5-7.5v-9.447c0-27.104 22.051-49.156 49.156-49.156h177.522c27.104 0 49.156 22.052 49.156 49.156v183.367h-18.241c-3.421-14.227-16.235-24.607-31.215-24.614-.005 0-.009 0-.014 0h-.002-177.959-.002c-14.933 0-27.8 10.353-31.229 24.614h-17.171v-138.92c0-4.143-3.358-7.5-7.5-7.5s-7.5 3.357-7.5 7.5v138.753h-159v-294.833h38.43v25.87h-11.65c-7.995 0-14.5 6.505-14.5 14.5v47.792c0 7.995 6.505 14.5 14.5 14.5h103.735c7.995 0 14.5-6.505 14.5-14.5v-47.792c0-7.995-6.505-14.5-14.5-14.5h-11.65v-25.87h97.538c7.444 0 13.5-6.056 13.5-13.5v-32.167c0-7.444-6.056-13.5-13.5-13.5-10.498 0-239.547 0-250.069 0-7.444 0-13.5 6.056-13.5 13.5-.001 4.903-.001 460.861-.001 471.661 0 8.547 6.953 15.5 15.5 15.5h152.794c8.547 0 15.5-6.953 15.5-15.5v-10.401c0-4.143-3.358-7.5-7.5-7.5s-7.5 3.357-7.5 7.5v10.401c0 .275-.224.5-.5.5h-152.794c-.276 0-.5-.225-.5-.5v-62.161h153.794v16.76c0 4.143 3.358 7.5 7.5 7.5s7.5-3.357 7.5-7.5v-16.76h22.872c1.641 0 3.214-.287 4.686-.792 6.669 11.49 19.1 19.239 33.314 19.239h228.834c21.229 0 38.5-17.271 38.5-38.5v-41.28-190.867c0-35.376-28.78-64.156-64.156-64.156zm-.315 272.136c-9.437 0-17.114-7.677-17.114-17.113s7.677-17.114 17.114-17.114 17.114 7.678 17.114 17.114c0 9.173-7.462 17.113-17.114 17.113zm-177.961-34.227c.154 0 .303.019.456.023 9.298.248 16.656 7.877 16.656 17.091 0 9.4-7.656 17.113-17.114 17.113-9.437 0-17.114-7.677-17.114-17.113.001-9.436 7.678-17.114 17.116-17.114zm150.798 0c-6.561 10.371-6.613 23.776 0 34.228h-123.636c6.616-10.46 6.562-23.855 0-34.228zm-243.184-197.724h-102.736v-46.792h102.735v46.792zm-26.151-61.792h-50.435v-25.87h50.435zm111.038-40.87h-214.902v-29.167h214.902zm-247.069-29.167h17.167v339h-17.167zm191.167 393c-13.832 0-185.004 0-191.167 0v-39h191.167v33.947zm290.833-5.053c0 12.958-10.542 23.5-23.5 23.5h-228.833c-12.958 0-23.5-10.542-23.5-23.5v-33.78h17.171c3.457 14.371 16.414 24.614 31.206 24.614h177.986c14.981 0 27.822-10.414 31.229-24.614h18.241z"/><path d="m498.5 459.331c-10.381 0-268.008 0-278.833 0-7.444 0-13.5 6.056-13.5 13.5v20c0 7.444 6.056 13.5 13.5 13.5h278.833c7.444 0 13.5-6.056 13.5-13.5v-20c0-7.444-6.056-13.5-13.5-13.5zm-72.18 15v17h-134.473v-17zm-205.153 0h13.346v17h-13.346zm28.346 17v-17h27.333v17zm191.807 0v-17h27.333v17zm55.68 0h-13.346v-17h13.346z"/></g></g></svg>