<svg id="Capa_1" enable-background="new 0 0 511.992 511.992" height="40" viewBox="0 0 511.992 511.992" width="40" xmlns="http://www.w3.org/2000/svg"><g><path d="m389.801 466.262h114.69v38.23h-114.69z" fill="#8e9fb6"/><path d="m389.806 466.266h38.225v38.23h-38.225z" fill="#7a8da6"/><path d="m504.492 83.96h-114.69v-56.46c0-11.046 8.954-20 20-20h74.69c11.046 0 20 8.954 20 20z" fill="#8ac9fe"/><path d="m449.806 7.496c-11.05 0-20 8.96-20 20v56.46h-40v-56.46c0-11.04 8.95-20 20-20z" fill="#60b7ff"/><path d="m336.571 466.262h-275.84c-8.284 0-15-6.716-15-15v-337.301c0-16.569 13.431-30 30-30h245.841c16.569 0 30 13.431 30 30v337.301c-.001 8.284-6.716 15-15.001 15z" fill="#f07281"/><path d="m110.726 466.266h-50c-8.28 0-15-6.72-15-15v-337.31c0-16.56 13.44-30 30-30h50c-16.56 0-30 13.44-30 30v337.31c0 8.28 6.72 15 15 15z" fill="#eb5569"/><path d="m255.996 466.261h-114.69l19.115-76.46h76.46z" fill="#8ac9fe"/><path d="m241.886 409.806h-51.47l-14.11 56.46h-35l19.11-76.46h76.47z" fill="#60b7ff"/><path d="m141.306 83.96h114.69v38.23h-114.69z" fill="#fee97d"/><path d="m141.306 83.956h50v38.23h-50z" fill="#fee45a"/><g fill="#8e9fb6"><path d="m126.306 504.492h-27.345c-8.284 0-15-6.716-15-15v-23.23h57.345v23.23c0 8.284-6.716 15-15 15z"/><path d="m298.341 504.492h-27.345c-8.284 0-15-6.716-15-15v-23.23h57.345v23.23c0 8.284-6.715 15-15 15z"/><path d="m22.5 275.111h23.23v-76.46h-23.23c-8.284 0-15 6.716-15 15v46.46c0 8.284 6.716 15 15 15z"/><path d="m374.801 275.111h-23.23v-76.46h23.23c8.284 0 15 6.716 15 15v46.46c0 8.284-6.715 15-15 15z"/></g><path d="m103.076 408.916h-57.345v-38.23h76.46z" fill="#fee97d"/><path d="m45.726 370.686h50v38.23h-50z" fill="#fee45a"/><path d="m351.571 408.916h-57.345l-19.115-38.23h76.46z" fill="#fee97d"/><path d="m324.226 408.916h-30l-19.11-38.23h30z" fill="#fee45a"/><path d="m45.731 160.421h305.841v152.92h-305.841z" fill="#eaf6ff"/><path d="m45.726 160.416h50v152.93h-50z" fill="#d8ecfe"/><g><path d="m397.302 260.111v-46.46c0-12.407-10.094-22.5-22.5-22.5h-15.726v-77.195c0-20.678-16.822-37.5-37.5-37.5h-106.58c-4.143 0-7.5 3.358-7.5 7.5s3.357 7.5 7.5 7.5h33.5v23.23h-99.69v-23.23h33.5c4.143 0 7.5-3.358 7.5-7.5s-3.357-7.5-7.5-7.5h-106.579c-20.678 0-37.5 16.822-37.5 37.5v77.195h-15.727c-12.406 0-22.5 10.093-22.5 22.5v46.46c0 12.407 10.094 22.5 22.5 22.5h15.727v168.655c0 12.407 10.094 22.5 22.5 22.5h15.734v15.726c0 12.407 10.094 22.5 22.5 22.5h27.345c12.406 0 22.5-10.093 22.5-22.5v-15.726h33.5c4.143 0 7.5-3.358 7.5-7.5s-3.357-7.5-7.5-7.5h-31.395l5.807-23.235h83.865l5.807 23.235h-31.395c-4.143 0-7.5 3.358-7.5 7.5s3.357 7.5 7.5 7.5h33.5v15.726c0 12.407 10.094 22.5 22.5 22.5h27.346c12.406 0 22.5-10.093 22.5-22.5v-15.726h15.734c12.406 0 22.5-10.093 22.5-22.5v-168.655h15.726c12.407 0 22.501-10.093 22.501-22.5zm-321.575-168.655h58.079v30.73c0 4.142 3.357 7.5 7.5 7.5h114.69c4.143 0 7.5-3.358 7.5-7.5v-30.73h58.08c12.406 0 22.5 10.093 22.5 22.5v38.96h-290.849v-38.96c0-12.407 10.093-22.5 22.5-22.5zm-53.227 176.155c-4.136 0-7.5-3.364-7.5-7.5v-46.46c0-4.136 3.364-7.5 7.5-7.5h15.727v61.46zm103.806 229.381h-27.345c-4.136 0-7.5-3.364-7.5-7.5v-15.726h42.345v15.726c0 4.135-3.365 7.5-7.5 7.5zm34.162-76.461 5.805-23.225h64.757l5.805 23.225zm145.374 68.961c0 4.136-3.364 7.5-7.5 7.5h-27.346c-4.136 0-7.5-3.364-7.5-7.5v-15.726h42.346zm30.734-30.726-74.725-.004-17.689-70.774c-.835-3.339-3.835-5.682-7.276-5.682h-76.47c-3.441 0-6.441 2.342-7.276 5.682l-17.689 70.774-74.724.004c-4.136 0-7.5-3.365-7.5-7.5v-34.85h49.85c2.841 0 5.438-1.605 6.708-4.146l19.114-38.23c1.798-6.111-.438-9.729-6.708-10.854h-68.964v-42.34h221.75c4.143 0 7.5-3.358 7.5-7.5s-3.357-7.5-7.5-7.5h-221.75v-137.93h290.85v137.93h-36.42c-4.143 0-7.5 3.358-7.5 7.5s3.357 7.5 7.5 7.5h36.42v42.34h-68.965c-6.27 1.125-8.506 4.743-6.708 10.854l19.115 38.23c1.271 2.541 3.867 4.146 6.708 4.146h49.85v34.85c-.001 4.135-3.365 7.5-7.501 7.5zm-283.346-57.35v-23.23h56.825l-11.615 23.23zm290.841-23.23v23.23h-45.21l-11.614-23.23zm15.005-172.035h15.726c4.136 0 7.5 3.364 7.5 7.5v46.46c0 4.136-3.364 7.5-7.5 7.5h-15.726z"/><path d="m484.492 0h-74.69c-15.163 0-27.5 12.336-27.5 27.5v56.46c0 4.142 3.357 7.5 7.5 7.5h107.19v290.841h-38.961c-20.678 0-37.5 16.822-37.5 37.5v38.96h-30.729c-4.143 0-7.5 3.358-7.5 7.5v38.23c0 4.142 3.357 7.5 7.5 7.5h114.69c4.143 0 7.5-3.358 7.5-7.5v-476.991c0-15.163-12.337-27.5-27.5-27.5zm-87.19 27.5c0-6.893 5.607-12.5 12.5-12.5h74.69c6.893 0 12.5 5.607 12.5 12.5v48.96h-99.69zm38.229 392.301c0-12.407 10.094-22.5 22.5-22.5h38.961v61.46h-61.461zm61.461 77.191h-99.69v-23.23h99.69z"/></g></g></svg>