<svg height="35px" viewBox="0 -29 512 512" width="35px" xmlns="http://www.w3.org/2000/svg"><path d="m33.085938 110.574219v332.191406c0 2.207031 1.792968 4 4 4h437.828124c2.207032 0 4-1.792969 4-4v-332.191406zm0 0" fill="#ed5176"/><g fill="#ba365f"><path d="m33.085938 224.496094h445.828124v22.566406h-445.828124zm0 0"/><path d="m33.085938 110.574219h445.828124v22.566406h-445.828124zm0 0"/><path d="m176.816406 110.574219v22.726562c0 16.011719 12.980469 28.992188 28.992188 28.992188h122.453125c20.667969 0 37.425781-16.753907 37.425781-37.425781v-14.292969zm0 0"/><path d="m455.332031 110.574219v332.191406c0 2.207031-1.792969 4-4 4h23.582031c2.207032 0 4-1.792969 4-4v-332.191406zm0 0"/></g><path d="m202.679688 297.324219v149.441406h106.640624v-149.441406c0-5.523438-4.476562-10.003907-10-10.003907h-86.636718c-5.527344 0-10.003906 4.480469-10.003906 10.003907zm0 0" fill="#6a7193"/><path d="m217.929688 312.585938c0-5.523438 4.476562-10 10-10h81.390624v-5.261719c0-5.523438-4.476562-10.003907-10-10.003907h-86.636718c-5.527344 0-10.003906 4.480469-10.003906 10.003907v149.441406h15.25zm0 0" fill="#575b7a"/><path d="m8.121094 179.675781v40.824219c0 2.207031 1.789062 4 4 4h487.757812c2.210938 0 4-1.792969 4-4v-40.824219c0-2.210937-1.789062-4-4-4h-487.757812c-2.210938 0-4 1.789063-4 4zm0 0" fill="#c8e7f7"/><path d="m499.878906 175.675781h-23.492187c2.210937 0 4 1.789063 4 4v40.824219c0 2.207031-1.789063 4-4 4h23.492187c2.210938 0 4-1.792969 4-4v-40.824219c0-2.210937-1.789062-4-4-4zm0 0" fill="#8cbcd6"/><path d="m342 311.820312v81.84375c0 4.675782 3.789062 8.46875 8.46875 8.46875h92.816406c4.679688 0 8.46875-3.792968 8.46875-8.46875v-81.84375c0-4.675781-3.789062-8.464843-8.46875-8.464843h-92.816406c-4.679688 0-8.46875 3.789062-8.46875 8.464843zm0 0" fill="#c8e7f7"/><path d="m60.246094 311.820312v81.84375c0 4.675782 3.789062 8.46875 8.46875 8.46875h92.816406c4.679688 0 8.46875-3.792968 8.46875-8.46875v-81.84375c0-4.675781-3.789062-8.464843-8.46875-8.464843h-92.816406c-4.679688 0-8.46875 3.789062-8.46875 8.464843zm0 0" fill="#c8e7f7"/><path d="m504.5 88.539062v-18.34375h-497v18.34375c12.171875 0 22.035156 9.867188 22.035156 22.035157h452.929688c0-12.171875 9.863281-22.035157 22.035156-22.035157zm0 0" fill="#c8e7f7"/><path d="m176.816406 70.195312h188.871094v40.378907h-188.871094zm0 0" fill="#8cbcd6"/><path d="m481.007812 70.195312v18.34375c-12.167968 0-22.035156 9.863282-22.035156 22.035157h23.492188c0-12.171875 9.863281-22.035157 22.035156-22.035157v-18.34375zm0 0" fill="#8cbcd6"/><path d="m161.566406 36.492188v81.832031c0 16.015625 12.980469 28.992187 28.992188 28.992187h130.882812c16.011719 0 28.992188-12.976562 28.992188-28.992187v-81.832031c0-16.011719-12.980469-28.992188-28.992188-28.992188h-130.882812c-16.011719 0-28.992188 12.980469-28.992188 28.992188zm0 0" fill="#ffeb96"/><path d="m478.914062 312.195312c-4.144531 0-7.5 3.359376-7.5 7.5v119.570313h-154.59375v-141.941406c0-9.652344-7.851562-17.503907-17.5-17.503907h-86.640624c-9.648438 0-17.5 7.855469-17.5 17.503907v141.941406h-154.59375v-119.570313c0-4.140624-3.355469-7.5-7.5-7.5-4.144532 0-7.5 3.359376-7.5 7.5v123.070313c0 6.339844 5.160156 11.5 11.5 11.5h437.828124c6.339844 0 11.5-5.160156 11.5-11.5v-123.070313c0-4.140624-3.355468-7.5-7.5-7.5zm-268.734374 127.070313v-141.941406c0-1.378907 1.121093-2.503907 2.5-2.503907h86.640624c1.378907 0 2.5 1.125 2.5 2.503907v141.941406zm0 0"/><path d="m443.285156 409.632812c8.804688 0 15.96875-7.164062 15.96875-15.96875v-81.84375c0-8.804687-7.164062-15.964843-15.96875-15.964843h-92.816406c-8.804688 0-15.96875 7.160156-15.96875 15.964843v81.84375c0 8.804688 7.164062 15.96875 15.96875 15.96875zm-93.785156-15.96875v-81.84375c0-.53125.433594-.964843.96875-.964843h92.816406c.535156 0 .96875.433593.96875.964843v81.84375c0 .535157-.433594.96875-.96875.96875h-92.816406c-.535156 0-.96875-.433593-.96875-.96875zm0 0"/><path d="m161.53125 409.632812c8.804688 0 15.96875-7.164062 15.96875-15.96875v-81.84375c0-8.804687-7.164062-15.964843-15.96875-15.964843h-92.816406c-8.804688 0-15.96875 7.160156-15.96875 15.964843v81.84375c0 8.804688 7.164062 15.96875 15.96875 15.96875zm-93.785156-15.96875v-81.84375c0-.53125.433594-.964843.96875-.964843h92.816406c.535156 0 .96875.433593.96875.964843v81.84375c0 .535157-.433594.96875-.96875.96875h-92.816406c-.535156 0-.96875-.433593-.96875-.96875zm0 0"/><path d="m489.960938 110.570312c0-8.011718 6.519531-14.527343 14.539062-14.527343 4.144531 0 7.5-3.359375 7.5-7.5v-18.351563c0-4.140625-3.355469-7.5-7.5-7.5h-123.808594c-4.144531 0-7.5 3.359375-7.5 7.5 0 4.144532 3.355469 7.5 7.5 7.5h116.308594v4.316406c-10.269531 2.695313-18.375 10.796876-21.074219 21.0625h-117.988281v-66.578124c0-20.121094-16.371094-36.492188-36.492188-36.492188h-130.886718c-20.125 0-36.492188 16.371094-36.492188 36.492188v26.199218h-146.566406c-4.144531 0-7.5 3.359375-7.5 7.5v18.351563c0 4.140625 3.355469 7.5 7.5 7.5 8.019531 0 14.539062 6.515625 14.539062 14.527343 0 2.707032 1.433594 5.078126 3.582032 6.398438v51.226562h-13.496094c-6.34375 0-11.503906 5.160157-11.503906 11.5v40.839844c0 6.339844 5.160156 11.5 11.503906 11.5h13.496094v57.714844c0 4.140625 3.355468 7.5 7.5 7.5 4.144531 0 7.5-3.359375 7.5-7.5v-57.714844h431.378906v57.726563c0 4.140625 3.355469 7.5 7.5 7.5 4.140625 0 7.5-3.359375 7.5-7.5v-57.726563h13.496094c6.34375 0 11.503906-5.160156 11.503906-11.5v-40.839844c0-6.339843-5.160156-11.5-11.503906-11.5h-13.496094v-51.652343c1.796875-1.371094 2.960938-3.535157 2.960938-5.972657zm-320.898438-74.078124c0-11.851563 9.644531-21.492188 21.492188-21.492188h130.886718c11.851563 0 21.492188 9.640625 21.492188 21.492188v81.832031c0 11.851562-9.640625 21.492187-21.492188 21.492187h-130.882812c-11.851563 0-21.492188-9.640625-21.492188-21.492187v-81.832031zm327.9375 180.542968h-481.378906v-33.839844h481.378906zm-456.378906-48.839844v-50.125h90.949218c4.144532 0 7.5-3.355468 7.5-7.5 0-4.140624-3.355468-7.5-7.5-7.5h-95.496093c-2.699219-10.265624-10.804688-18.367187-21.074219-21.0625v-4.316406h139.0625v40.636719c0 20.121094 16.371094 36.492187 36.492188 36.492187h130.886718c20.125 0 36.492188-16.371093 36.492188-36.492187v-.253906h114.0625v50.121093zm0 0"/><path d="m227 359.542969h-6c-4.144531 0-7.5 3.359375-7.5 7.5s3.355469 7.5 7.5 7.5h6c4.144531 0 7.5-3.359375 7.5-7.5s-3.355469-7.5-7.5-7.5zm0 0"/><path d="m202.277344 44.933594h9.191406l9.429688 45.078125c1.828124 8.734375 9.632812 15.078125 18.558593 15.078125h44.535157c7.839843 0 14.96875-4.929688 17.738281-12.261719l14.707031-38.933594c1.398438-3.707031.890625-7.863281-1.359375-11.117187-2.25-3.257813-5.960937-5.203125-9.917969-5.203125h-62.988281c-4.140625 0-7.5 3.355469-7.5 7.5 0 4.140625 3.359375 7.5 7.5 7.5h58.730469l-13.203125 34.953125c-.578125 1.53125-2.066407 2.5625-3.703125 2.5625h-44.539063c-1.863281 0-3.492187-1.328125-3.875-3.148438l-9.46875-45.253906c-1.425781-6.8125-7.507812-11.753906-14.46875-11.753906h-9.363281c-4.144531 0-7.5 3.355468-7.5 7.5 0 4.140625 3.355469 7.5 7.496094 7.5zm0 0"/><path d="m240.75 111.382812h-2c-4.144531 0-7.5 3.355469-7.5 7.5 0 4.140626 3.355469 7.5 7.5 7.5h2c4.144531 0 7.5-3.359374 7.5-7.5 0-4.144531-3.355469-7.5-7.5-7.5zm0 0"/><path d="m273.25 111.382812h-2c-4.144531 0-7.5 3.355469-7.5 7.5 0 4.140626 3.355469 7.5 7.5 7.5h2c4.144531 0 7.5-3.359374 7.5-7.5 0-4.144531-3.355469-7.5-7.5-7.5zm0 0"/></svg>