<svg height="30" viewBox="0 0 58 58" width="30" xmlns="http://www.w3.org/2000/svg"><g id="Page-1" fill="none" fill-rule="evenodd"><g id="033---Pet-Adoption" fill-rule="nonzero"><path id="Shape" d="m52 20.63v35.37c0 1.1045695-.8954305 2-2 2h-42c-1.1045695 0-2-.8954305-2-2v-35.37l23-18.63z" fill="#f0c419"/><path id="Shape" d="m48 31.2c-.0008935.7019827-.0443064 1.4032668-.13 2.1-.78 6.64-5.38 16.23-18.87 20.7-13.49-4.47-18.09-14.06-18.87-20.7-.0856936-.6967332-.1291065-1.3980173-.13-2.1 0-6.53 3.88-12.2 9.5-12.2 3.647953.0314455 7.107143 1.6263142 9.5 4.38 2.392857-2.7536858 5.852047-4.3485545 9.5-4.38 5.62 0 9.5 5.67 9.5 12.2z" fill="#df4d60"/><path id="Shape" d="m48 31.2c-.0008935.7019827-.0443064 1.4032668-.13 2.1-2.73 5.65-10.14 9.7-18.87 9.7s-16.14-4.05-18.87-9.7c-.0856936-.6967332-.1291065-1.3980173-.13-2.1 0-6.53 3.88-12.2 9.5-12.2 3.647953.0314455 7.107143 1.6263142 9.5 4.38 2.392857-2.7536858 5.852047-4.3485545 9.5-4.38 5.62 0 9.5 5.67 9.5 12.2z" fill="#ff5364"/><g fill="#35495e"><path id="Shape" d="m29 46c1.684 0 2.526 1 4.21 1 3.368 0 3.368-4 1.684-6s-2.526-6-5.894-6-4.21 4-5.894 6-1.684 6 1.684 6c1.684 0 2.526-1 4.21-1z"/><ellipse id="Oval" cx="24" cy="28.976" rx="3" ry="4" transform="matrix(.985 -.171 .171 .985 -4.59 4.517)"/><ellipse id="Oval" cx="18.549" cy="36.96" rx="2.5" ry="3" transform="matrix(.955 -.297 .297 .955 -10.13 7.167)"/><ellipse id="Oval" cx="34.034" cy="28.975" rx="4" ry="3" transform="matrix(.171 -.985 .985 .171 -.32 57.57)"/><ellipse id="Oval" cx="39.451" cy="36.96" rx="3" ry="2.5" transform="matrix(.297 -.955 .955 .297 -7.549 63.67)"/></g><path id="Shape" d="m39 9v-7c0-1.1045695.8954305-2 2-2h4c1.1045695 0 2 .8954305 2 2v12z" fill="#e57e25"/><path id="Shape" d="m54.849 22.636-25.849-18.19-25.849 18.19c-.90338293.6138673-2.1321805.3894667-2.76028299-.5040774-.62810248-.893544-.42319791-2.1257425.46028299-2.7679226l27-19c.6899868-.48492424 1.6100132-.48492424 2.3 0l27 19c.5972433.4058391.9293507 1.1021012.868902 1.8216503-.0604488.7195491-.5040663 1.3506432-1.1606491 1.6511494-.6565827.3005062-1.4241672.2237575-2.0082529-.2007997z" fill="#f29c1f"/></g></g></svg>