<svg id="Layer_1" enable-background="new 0 0 256 256" height="35" viewBox="0 0 256 256" width="35" xmlns="http://www.w3.org/2000/svg"><g><path d="m230.51 113.41v127.66c0 5.53-4.48 10-10 10h-185.02c-5.52 0-10-4.47-10-10v-127.66c13.911 7.428 32.3-1.626 32.3-20.25 0 12.61 10.22 22.84 22.84 22.84 11.46 0 22.84-8.51 22.84-24.53 0 13.55 10.98 24.53 24.53 24.53s24.53-10.98 24.53-24.53c0 15.99 11.38 24.53 22.84 24.53 12.62 0 22.84-10.23 22.84-22.84 0 18.529 18.315 27.718 32.3 20.25z" fill="#72c1e8"/><g fill="#fc5d3d"><path d="m57.79 80.65v12.51c0 18.622-18.388 27.679-32.3 20.25-6.89-3.71-11.57-10.98-11.57-19.34v-13.42z"/><path d="m242.08 80.65v13.42c0 8.36-4.68 15.63-11.57 19.34-13.977 7.463-32.3-1.711-32.3-20.25v-12.51z"/><path d="m152.53 80.66v10.81c0 13.55-10.98 24.53-24.53 24.53s-24.53-10.98-24.53-24.53v-10.81z"/><path d="m103.47 80.65h49.06v.01h-49.06z"/></g><path d="m198.21 80.66v12.5c0 12.61-10.22 22.84-22.84 22.84-11.46 0-22.84-8.54-22.84-24.53v-10.81z" fill="#f2e1d6"/><path d="m152.53 80.65h45.68v.01h-45.68z" fill="#f2e1d6"/><path d="m103.47 80.66v10.81c0 16.02-11.38 24.53-22.84 24.53-12.62 0-22.84-10.23-22.84-22.84v-12.5z" fill="#f2e1d6"/><path d="m57.79 80.65h45.68v.01h-45.68z" fill="#f2e1d6"/><path d="m215.51 239.577h-162.175c-1.381 0-2.5-1.119-2.5-2.5s1.119-2.5 2.5-2.5h160.675v-104.755c0-1.381 1.119-2.5 2.5-2.5s2.5 1.119 2.5 2.5v106.254c0 1.93-1.571 3.501-3.5 3.501zm-172.175 0h-2.845c-1.381 0-2.5-1.119-2.5-2.5s1.119-2.5 2.5-2.5h2.845c1.381 0 2.5 1.119 2.5 2.5s-1.119 2.5-2.5 2.5z" fill="#c5e5ff"/><path d="m35.855 109.888c-.792 0-1.587-.06-2.365-.177-1.365-.206-2.305-1.48-2.099-2.845s1.479-2.302 2.845-2.099c.532.081 1.077.121 1.619.121 1.381 0 2.5 1.119 2.5 2.5s-1.119 2.5-2.5 2.5zm-12.394-5.998c-2.208-2.782-3.424-6.27-3.424-9.82v-4.8c0-1.381 1.119-2.5 2.5-2.5s2.5 1.119 2.5 2.5v4.801c0 2.461.809 4.782 2.34 6.711.858 1.082.678 2.654-.404 3.512-1.08.857-2.653.678-3.512-.404z" fill="#ffcbc2"/><path d="m80.631 109.888c-.784 0-1.572-.055-2.342-.164-1.367-.193-2.319-1.458-2.126-2.825s1.459-2.319 2.825-2.126c.54.076 1.092.115 1.644.115 1.381 0 2.5 1.119 2.5 2.5s-1.12 2.5-2.501 2.5zm-12.488-5.608c-2.734-3.068-4.24-7.017-4.24-11.12v-3.89c0-1.381 1.119-2.5 2.5-2.5s2.5 1.119 2.5 2.5v3.891c0 2.875 1.056 5.643 2.973 7.793.919 1.031.828 2.611-.203 3.53-1.031.918-2.612.827-3.53-.204z" fill="#fff"/><path d="m220.145 109.888c-.792 0-1.588-.06-2.365-.177-1.365-.207-2.305-1.48-2.098-2.846.205-1.365 1.475-2.302 2.846-2.099.53.081 1.074.121 1.617.121 1.381 0 2.5 1.119 2.5 2.5s-1.12 2.501-2.5 2.501zm-12.394-5.999c-2.208-2.782-3.424-6.269-3.424-9.819v-4.8c0-1.381 1.119-2.5 2.5-2.5s2.5 1.119 2.5 2.5v4.801c0 2.461.81 4.782 2.34 6.71.858 1.082.678 2.654-.403 3.512-1.083.858-2.656.677-3.513-.404z" fill="#ffcbc2"/><path d="m175.369 109.888c-.782 0-1.57-.055-2.342-.164-1.367-.192-2.319-1.457-2.127-2.824.192-1.368 1.46-2.315 2.824-2.127.541.076 1.095.115 1.645.115 1.381 0 2.5 1.119 2.5 2.5s-1.119 2.5-2.5 2.5zm-12.487-5.607c-2.734-3.067-4.24-7.017-4.241-11.12v-3.891c0-1.381 1.119-2.5 2.5-2.5s2.5 1.119 2.5 2.5v3.891c.001 2.875 1.057 5.643 2.974 7.793.919 1.031.828 2.611-.203 3.53-1.032.918-2.611.827-3.53-.203z" fill="#fff"/><path d="m128 109.888c-.769 0-1.545-.048-2.305-.144-1.37-.172-2.341-1.422-2.169-2.792s1.427-2.336 2.792-2.169c.555.07 1.121.105 1.682.105 1.381 0 2.5 1.119 2.5 2.5s-1.119 2.5-2.5 2.5zm-12.6-4.997c-3.694-3.471-5.812-8.36-5.812-13.414v-2.207c0-1.381 1.119-2.5 2.5-2.5s2.5 1.119 2.5 2.5v2.208c0 3.733 1.504 7.203 4.235 9.77 1.006.945 1.056 2.527.11 3.534-.945 1.005-2.528 1.054-3.533.109z" fill="#ffcbc2"/><path d="m210.623 33.907h-165.246l-31.455 46.748h228.155z" fill="#fc5d3d"/><path d="m200.623 4.928h-145.248c-5.523 0-10 4.477-10 10v18.979h165.248v-18.979c0-5.523-4.477-10-10-10z" fill="#72c1e8"/><path d="m201.623 27.407c-1.381 0-2.5-1.119-2.5-2.5v-8.479h-143.748c-1.381 0-2.5-1.119-2.5-2.5s1.119-2.5 2.5-2.5h145.248c1.93 0 3.5 1.57 3.5 3.5v9.979c0 1.381-1.119 2.5-2.5 2.5z" fill="#fff"/><path d="m198.212 80.655h-45.686l-6.76-46.745h33.088z" fill="#f2e1d6"/><path d="m62.129 72.389h-28.082c-1.875 0-3.085-1.995-2.216-3.658l14.421-24.143c.64-1.224 2.151-1.699 3.374-1.058 1.224.639 1.697 2.149 1.058 3.374l-12.51 20.485h23.955c1.381 0 2.5 1.119 2.5 2.5s-1.119 2.5-2.5 2.5z" fill="#ffcbc2"/><path d="m219.25 72.387h-26.87c-1.381 0-2.5-1.119-2.5-2.5s1.119-2.5 2.5-2.5h26.87c1.381 0 2.5 1.119 2.5 2.5s-1.119 2.5-2.5 2.5z" fill="#ffcbc2"/><path d="m150.489 72.389h-44.979c-1.381 0-2.5-1.119-2.5-2.5s1.119-2.5 2.5-2.5h44.979c1.381 0 2.5 1.119 2.5 2.5s-1.119 2.5-2.5 2.5z" fill="#ffcbc2"/><path d="m77.146 33.91h33.088l-6.76 46.745h-45.686z" fill="#f2e1d6"/><path d="m104.988 72.389h-41.369c-1.381 0-2.5-1.119-2.5-2.5s1.119-2.5 2.5-2.5h41.369c1.381 0 2.5 1.119 2.5 2.5s-1.119 2.5-2.5 2.5z" fill="#fff"/><path d="m192.185 72.389h-41.695c-1.381 0-2.5-1.119-2.5-2.5s1.119-2.5 2.5-2.5h41.695c1.381 0 2.5 1.119 2.5 2.5s-1.12 2.5-2.5 2.5z" fill="#fff"/><path d="m103.907 129.822c-8.401 0-15.218 8.818-15.218 19.7 0 8.495 4.159 15.729 9.985 18.501 3.362 1.585 7.101 1.586 10.465 0 5.827-2.773 9.985-10.006 9.985-18.501.001-10.882-6.816-19.7-15.217-19.7z" fill="#f0c020"/><path d="m110.922 217.241c.146 3.982-3.033 7.275-7.015 7.275s-7.161-3.294-7.015-7.275l1.782-49.218c3.362 1.585 7.101 1.586 10.465 0z" fill="#f0c020"/><path d="m160.702 218.477c.146 3.982-3.033 7.275-7.015 7.275-3.971 0-7.161-3.294-7.015-7.275l1.824-50.052h10.392z" fill="#f0c020"/><path d="m167.311 155.669v7.544c0 2.877-2.335 5.212-5.212 5.212h-16.823c-2.877 0-5.212-2.335-5.212-5.212v-7.544z" fill="#f0c020"/><path d="m167.311 128.558c-1.381 0-2.5 1.119-2.5 2.5v22.111h-8.623v-22.111c0-1.381-1.119-2.5-2.5-2.5s-2.5 1.119-2.5 2.5v22.111h-8.623v-22.111c0-1.381-1.119-2.5-2.5-2.5s-2.5 1.119-2.5 2.5v32.155c0 4.252 3.46 7.712 7.712 7.712h.628l-1.73 47.46c-.199 5.408 4.124 9.867 9.513 9.867 5.405 0 9.711-4.464 9.513-9.866l-1.72-47.461h.619c4.252 0 7.711-3.459 7.711-7.712 0-12.43 0-19.916 0-32.155 0-1.381-1.12-2.5-2.5-2.5zm-9.107 90.009v.001c.093 2.566-1.946 4.684-4.517 4.684-2.559 0-4.61-2.117-4.517-4.685l1.736-47.643h5.57zm6.607-55.354c0 1.495-1.216 2.712-2.711 2.712-7.619 0-9.201 0-16.823 0-1.495 0-2.712-1.217-2.712-2.712v-5.044h22.246z"/><path d="m103.907 127.322c-9.77 0-17.718 9.959-17.718 22.2 0 8.626 3.848 16.245 9.931 19.947l-1.727 47.68c-.198 5.402 4.108 9.867 9.513 9.867 5.406 0 9.71-4.464 9.514-9.866l-1.727-47.68c6.081-3.697 9.932-11.32 9.932-19.948 0-12.241-7.948-22.2-17.718-22.2zm4.516 90.011c.095 2.567-1.947 4.684-4.517 4.684-2.569 0-4.611-2.117-4.516-4.685l1.662-45.898c1.933.391 4.007.345 5.709 0l1.662 45.898zm-.35-51.571c-2.684 1.265-5.642 1.267-8.329.002-5.117-2.438-8.555-8.964-8.555-16.241 0-9.484 5.705-17.2 12.718-17.2s12.718 7.716 12.718 17.2c0 7.278-3.44 13.806-8.552 16.239z"/><path d="m11.42 94.072c0 8.496 4.396 16.318 11.57 20.774v126.226c0 6.893 5.607 12.5 12.5 12.5h185.02c6.893 0 12.5-5.607 12.5-12.5v-126.225c7.172-4.452 11.57-12.276 11.57-20.774 0-.382.005-13.129-.009-13.511-.017-.441-.172-.95-.446-1.341l-31.001-46.076v-18.217c0-6.893-5.607-12.5-12.5-12.5h-145.249c-6.893 0-12.5 5.607-12.5 12.5v18.219l-31.002 46.076c-.296.423-.453.999-.453 1.429zm35.288-57.665h26.699l-17.289 41.745h-37.498zm190.672 41.745h-37.499l-17.288-41.746h26.699zm-62.01 35.35c-9.877 0-20.34-7.23-20.34-22.032v-8.315h40.68v10.007c0 11.215-9.124 20.34-20.34 20.34zm-47.37 0c-12.147 0-22.03-9.882-22.03-22.03v-8.317h44.061v8.317c-.001 12.148-9.884 22.03-22.031 22.03zm-20.654-77.092-6.037 41.743h-39.779l17.287-41.743zm69.837 0 17.287 41.743h-39.78l-6.037-41.743zm-116.893 46.745h40.68v8.315c0 14.373-10.05 22.032-20.34 22.032-11.215 0-20.34-9.125-20.34-20.34zm83.31-46.748 6.038 41.746h-43.276l6.037-41.746zm-127.18 57.665v-10.917h38.87v10.007c0 12.488-9.287 20.34-19.43 20.34-10.86 0-19.44-8.804-19.44-19.43zm204.09 154.5h-185.02c-4.136 0-7.5-3.364-7.5-7.5v-123.877c11.918 4.028 24.693-1.552 29.971-12.728 4.162 8.312 12.757 14.034 22.668 14.034 10.31 0 19.196-6.193 23.148-15.051 4.425 8.91 13.617 15.051 24.222 15.051s19.797-6.141 24.222-15.051c3.953 8.858 12.838 15.051 23.148 15.051 9.911 0 18.506-5.722 22.668-14.034 5.253 11.122 18.001 16.773 29.971 12.727v123.877c.002 4.137-3.362 7.501-7.498 7.501zm-.37-135.07c-9.904 0-19.43-7.6-19.43-20.34v-10.007h38.87v10.917c0 10.635-8.586 19.43-19.44 19.43zm-172.265-98.574c0-4.136 3.364-7.5 7.5-7.5h145.248c4.136 0 7.5 3.364 7.5 7.5v16.479h-160.248z"/></g></svg>