<svg id="Capa_1" enable-background="new 0 0 512 512" height="35" viewBox="0 0 512 512" width="35" xmlns="http://www.w3.org/2000/svg"><g><g clip-rule="evenodd" fill-rule="evenodd"><path d="m228.391 295.912c65.51 0 118.943-53.575 118.943-119.253s-53.434-119.226-118.943-119.226c-65.51 0-118.915 53.546-118.915 119.225s53.405 119.254 118.915 119.254z" fill="#78c2a4"/><path d="m228.391 295.912c65.68 0 118.943-53.376 118.943-119.253 0-39.175-18.851-73.956-47.963-95.669 14.882 19.899 23.67 44.618 23.67 71.405 0 65.849-53.236 119.254-118.915 119.254-26.59 0-51.167-8.759-70.981-23.556 21.685 29.025 56.296 47.819 95.246 47.819z" fill="#66b394"/><path d="m273.462 262.378h205.685v35.688h-205.685z" fill="#b2a17d"/><path d="m260.224 350.564h232.16c2.665 0 4.848-2.183 4.848-4.848v-16.554c0-2.665-2.183-4.847-4.848-4.847h-232.16c-2.664 0-4.847 2.183-4.847 4.847v16.554c0 2.665 2.183 4.848 4.847 4.848z" fill="#a39474"/><path d="m273.49 280.009h205.43v17.858h-205.43z" fill="#a39474"/><path d="m103.835 317.483c49.039 0 89.037-39.997 89.037-89.036 0-49.04-39.998-89.036-89.037-89.036-49.04 0-89.038 39.997-89.038 89.036 0 49.04 39.998 89.036 89.038 89.036z" fill="#b3e59f"/><path d="m103.835 317.483c49.152 0 89.037-39.855 89.037-89.036 0-30.784-15.648-57.941-39.402-73.928 9.553 14.202 15.138 31.266 15.138 49.663 0 49.181-39.884 89.036-89.037 89.036-18.397 0-35.49-5.584-49.664-15.108 15.987 23.755 43.114 39.373 73.928 39.373z" fill="#95d6a4"/><path d="m44.25 454.567h423.501c20.211 0 36.766-16.526 36.766-36.737 0-20.211-16.555-36.737-36.766-36.737h-423.501c-20.212 0-36.737 16.526-36.737 36.737 0 20.211 16.525 36.737 36.737 36.737z" fill="#b3e59f"/><path d="m7.513 417.83c0 20.211 16.525 36.737 36.737 36.737h423.501c20.211 0 36.766-16.526 36.766-36.737 0-4.252-.737-8.334-2.069-12.132-5.046 14.287-18.709 24.604-34.696 24.604h-423.502c-15.96 0-29.623-10.318-34.668-24.604-1.361 3.798-2.069 7.88-2.069 12.132z" fill="#95d6a4"/></g><path d="m150.493 143.946c8.277 4.592 15.818 10.347 22.395 17.065 2.862 2.976 2.806 7.71-.142 10.573-2.977 2.892-7.711 2.835-10.573-.142-7.569-7.71-16.641-13.946-26.732-18.198-10.007-4.224-20.75-6.35-31.606-6.35-22.536 0-42.917 9.128-57.657 23.896-14.77 14.74-23.896 35.149-23.896 57.657 0 22.507 9.127 42.888 23.896 57.657 13.096 13.096 30.614 21.77 50.145 23.527v-81.184c0-4.139 3.374-7.512 7.513-7.512 4.138 0 7.483 3.373 7.483 7.512v26.674l16.498-13.067c3.231-2.551 7.937-1.984 10.488 1.247s2.012 7.937-1.22 10.488l-25.767 20.381v35.461c19.531-1.757 37.077-10.431 50.174-23.527 14.74-14.769 23.868-35.15 23.868-57.657 0-5.698-.539-11.14-1.616-16.356-1.077-5.386-2.722-10.63-4.876-15.619-1.615-3.799.171-8.192 3.969-9.808 3.799-1.616 8.192.142 9.808 3.94 2.495 5.868 4.451 12.076 5.755 18.51 1.276 6.321 1.956 12.785 1.956 19.333 0 18.879-5.414 36.51-14.797 51.392 5.471 2.239 11.169 4.082 17.008 5.471 5.925 1.417 12.076 2.41 18.341 2.835v-111.487c0-4.139 3.345-7.483 7.483-7.483 4.139 0 7.512 3.345 7.512 7.483v40.989l26.192-20.75c3.232-2.551 7.938-2.013 10.488 1.219 2.552 3.231 2.013 7.937-1.219 10.488l-35.462 28.063v51.506c6.066-.397 11.991-1.276 17.717-2.608 6.831-1.587 13.38-3.77 19.616-6.491v-16.696-9.553c0-4.139 3.373-7.483 7.512-7.483s7.483 3.345 7.483 7.483v2.041h20.013c9.724-9.893 17.603-21.628 23.103-34.582 5.67-13.38 8.788-28.091 8.788-43.626 0-12.415-1.984-24.293-5.67-35.32-3.826-11.508-9.468-22.167-16.61-31.663-2.467-3.317-1.786-7.994 1.502-10.46 3.316-2.495 7.994-1.814 10.46 1.474 8.079 10.771 14.485 22.875 18.822 35.943 4.224 12.643 6.491 26.107 6.491 40.025 0 17.49-3.572 34.186-10.007 49.408-4.422 10.375-10.176 20.069-17.036 28.8h31.721c4.139 0 7.512 3.373 7.512 7.512s-3.373 7.483-7.512 7.483h-71.577v20.693h176.118v-20.693h-71.547c-4.167 0-7.512-3.345-7.512-7.483 0-4.139 3.345-7.512 7.512-7.512h71.547v-2.041c0-4.139 3.374-7.483 7.513-7.483s7.483 3.345 7.483 7.483v9.553 35.688 18.737h17.887c4.139 0 7.483 3.373 7.483 7.512v26.249c0 4.138-3.345 7.512-7.483 7.512h-17.887v17.064c7.54 2.041 14.287 6.066 19.673 11.424 8.022 8.023 12.983 19.078 12.983 31.267 0 12.161-4.961 23.244-12.982 31.266-8.022 7.994-19.077 12.982-31.267 12.982h-423.501c-12.189 0-23.245-4.989-31.267-12.982-7.994-8.022-12.983-19.105-12.983-31.266 0-12.189 4.989-23.244 12.983-31.266 8.021-7.994 19.077-12.983 31.267-12.983h52.072v-48.897c-23.669-1.814-44.958-12.161-60.775-27.978-17.461-17.461-28.262-41.613-28.262-68.258 0-26.674 10.801-50.797 28.262-68.258 17.49-17.49 41.613-28.29 68.288-28.29 1.983 0 3.968.057 5.924.198 8.93-23.216 24.577-43.37 44.533-57.883 20.92-15.222 46.518-24.293 74.099-24.293 13.918 0 27.383 2.296 40.025 6.491 13.068 4.337 25.172 10.743 35.943 18.822 3.317 2.494 3.969 7.171 1.503 10.459-2.495 3.317-7.172 3.969-10.46 1.503-9.524-7.143-20.183-12.784-31.663-16.611-11.056-3.657-22.933-5.669-35.349-5.669-24.35 0-46.914 7.965-65.311 21.373-16.696 12.132-29.962 28.772-38.041 47.962 4.054.936 11.849 3.487 11.849 3.487 2.084.705 4.338 1.572 6.707 2.642 2.567 1.159 4.868 2.376 6.899 3.565zm313.856 229.635v-15.505h-176.119v15.505zm-191.114 0v-15.505h-17.858c-4.139 0-7.512-3.374-7.512-7.512v-26.249c0-4.139 3.373-7.512 7.512-7.512h17.858v-21.6c-5.272 2.013-10.716 3.657-16.271 4.961-6.859 1.559-13.89 2.608-21.062 3.033v70.384zm-52.328 0v-70.413c-7.342-.482-14.655-1.616-21.799-3.316-7.994-1.928-15.648-4.507-22.791-7.654-1.36 1.531-2.778 3.062-4.224 4.507-15.817 15.817-37.107 26.163-60.775 27.978v48.897h109.589zm-176.657 73.502h423.501c8.051 0 15.364-3.316 20.665-8.617s8.589-12.614 8.589-20.636c0-8.023-3.288-15.336-8.589-20.636-5.301-5.329-12.614-8.618-20.665-8.618-141.167 0-282.334 0-423.501 0-8.022 0-15.336 3.288-20.637 8.618-5.329 5.301-8.617 12.614-8.617 20.636s3.288 15.335 8.617 20.636c5.301 5.329 12.615 8.617 20.637 8.617zm243.98-141.533v11.253h176.118v-11.253zm201.49 37.502v-11.253h-226.86v11.253z"/></g></svg>