<svg width="423" height="298" viewBox="0 0 423 298" fill="none" xmlns="http://www.w3.org/2000/svg">
<g clip-path="url(#clip0)">
<path opacity="0.2" d="M349.509 262.541H319.173V246.82H349.509V262.541ZM320.455 261.362H348.227V247.999H320.455V261.362Z" fill="#1CD1A1"/>
<path opacity="0.2" d="M379.845 261.755H349.509V246.034H379.845V261.755ZM350.791 260.576H378.563V247.213H350.791V260.576Z" fill="#1CD1A1"/>
<path opacity="0.2" d="M410.182 261.755H379.846V246.034H410.182V261.755ZM381.128 260.576H408.9V247.213H381.128V260.576Z" fill="#1CD1A1"/>
<path opacity="0.2" d="M410.182 246.034H379.846V230.313H410.182V246.034ZM381.128 244.855H408.9V231.492H381.128V244.855Z" fill="#1CD1A1"/>
<path opacity="0.2" d="M379.845 246.034H349.509V230.313H379.845V246.034ZM350.791 244.855H378.563V231.492H350.791V244.855Z" fill="#1CD1A1"/>
<path opacity="0.2" d="M38.0273 261.755H7.69092V246.034H38.0273V261.755ZM8.97274 260.576H36.7455V247.213H8.97274V260.576Z" fill="#1CD1A1"/>
<path opacity="0.2" d="M68.3637 261.755H38.0273V246.034H68.3637V261.755ZM39.3092 260.576H67.0819V247.213H39.3092V260.576Z" fill="#1CD1A1"/>
<path opacity="0.2" d="M98.7001 261.755H68.3638V246.034H98.7001V261.755ZM69.6456 260.576H97.4183V247.213H69.6456V260.576Z" fill="#1CD1A1"/>
<path opacity="0.2" d="M129.037 262.541H98.7002V246.82H129.037V262.541ZM99.982 261.362H127.755V247.999H99.982V261.362Z" fill="#1CD1A1"/>
<path opacity="0.2" d="M98.7001 246.034H68.3638V230.313H98.7001V246.034ZM69.6456 244.855H97.4183V231.492H69.6456V244.855Z" fill="#1CD1A1"/>
<path opacity="0.2" d="M68.3637 246.034H38.0273V230.313H68.3637V246.034ZM39.3092 244.855H67.0819V231.492H39.3092V244.855Z" fill="#1CD1A1"/>
<path d="M380.393 213.162C380.393 213.162 374.779 195.621 381.444 182.71C384.279 177.312 385.133 171.214 383.879 165.331C383.261 162.541 382.365 159.81 381.205 157.171" stroke="#535461" stroke-width="2" stroke-miterlimit="10"/>
<path d="M385.358 149C385.358 151.15 381.127 157.383 381.127 157.383C381.127 157.383 376.897 151.15 376.897 149C376.897 147.967 377.343 146.977 378.137 146.247C378.931 145.517 380.007 145.107 381.13 145.107C382.252 145.107 383.329 145.517 384.122 146.247C384.916 146.977 385.362 147.967 385.362 149H385.358Z" fill="#1CD1A1"/>
<path d="M392.352 160.92C391.07 162.724 383.845 165.841 383.845 165.841C383.845 165.841 383.977 158.492 385.246 156.688C385.548 156.258 385.939 155.888 386.396 155.598C386.854 155.308 387.369 155.103 387.912 154.996C388.456 154.889 389.017 154.881 389.563 154.974C390.11 155.066 390.631 155.256 391.098 155.534C391.564 155.812 391.967 156.171 392.282 156.592C392.598 157.013 392.82 157.487 392.937 157.986C393.053 158.486 393.061 159.002 392.961 159.505C392.861 160.008 392.654 160.487 392.352 160.917V160.92Z" fill="#1CD1A1"/>
<path d="M392.044 181.271C389.959 182.238 382.003 181.57 382.003 181.57C382.003 181.57 386.147 175.282 388.237 174.319C389.239 173.854 390.401 173.774 391.467 174.098C392.533 174.421 393.416 175.12 393.922 176.042C394.427 176.964 394.514 178.033 394.162 179.014C393.811 179.994 393.05 180.807 392.048 181.271H392.044Z" fill="#1CD1A1"/>
<path d="M388.045 196.619C386.165 197.896 378.217 198.474 378.217 198.474C378.217 198.474 381.148 191.639 383.028 190.358C383.475 190.054 383.982 189.834 384.521 189.71C385.061 189.587 385.621 189.562 386.17 189.637C386.72 189.713 387.248 189.887 387.724 190.151C388.2 190.414 388.616 190.761 388.946 191.172C389.277 191.582 389.516 192.049 389.65 192.545C389.785 193.041 389.812 193.556 389.729 194.062C389.647 194.567 389.458 195.053 389.172 195.491C388.885 195.929 388.508 196.311 388.062 196.615L388.045 196.619Z" fill="#1CD1A1"/>
<path d="M374.961 166.262C376.636 167.759 384.447 169.312 384.447 169.312C384.447 169.312 382.533 162.174 380.858 160.665C380.459 160.309 379.988 160.029 379.472 159.84C378.955 159.651 378.403 159.558 377.848 159.565C377.292 159.573 376.743 159.681 376.233 159.883C375.723 160.086 375.261 160.379 374.874 160.746C374.487 161.112 374.182 161.546 373.977 162.021C373.771 162.496 373.67 163.003 373.678 163.514C373.686 164.026 373.804 164.53 374.024 165C374.244 165.469 374.563 165.894 374.961 166.25V166.262Z" fill="#1CD1A1"/>
<path d="M370.531 184.262C372.616 185.229 380.572 184.561 380.572 184.561C380.572 184.561 376.427 178.272 374.338 177.31C373.336 176.845 372.174 176.765 371.107 177.088C370.041 177.411 369.158 178.111 368.653 179.033C368.148 179.955 368.061 181.024 368.412 182.004C368.764 182.985 369.524 183.797 370.527 184.262H370.531Z" fill="#1CD1A1"/>
<path d="M368.835 202.306C370.715 203.583 378.662 204.161 378.662 204.161C378.662 204.161 375.748 197.342 373.864 196.049C373.417 195.745 372.91 195.525 372.371 195.401C371.832 195.278 371.271 195.253 370.722 195.328C370.172 195.404 369.644 195.578 369.168 195.842C368.692 196.105 368.277 196.452 367.946 196.863C367.616 197.273 367.376 197.74 367.242 198.236C367.107 198.732 367.081 199.247 367.163 199.753C367.245 200.258 367.434 200.744 367.721 201.182C368.007 201.62 368.384 202.002 368.831 202.306H368.835Z" fill="#1CD1A1"/>
<path opacity="0.25" d="M385.358 149C385.358 151.15 381.127 157.383 381.127 157.383C381.127 157.383 376.897 151.15 376.897 149C376.897 147.967 377.343 146.977 378.137 146.247C378.931 145.517 380.007 145.107 381.13 145.107C382.252 145.107 383.329 145.517 384.122 146.247C384.916 146.977 385.362 147.967 385.362 149H385.358Z" fill="black"/>
<path opacity="0.25" d="M392.352 160.92C391.07 162.724 383.845 165.841 383.845 165.841C383.845 165.841 383.977 158.492 385.246 156.688C385.548 156.258 385.939 155.888 386.396 155.598C386.854 155.308 387.369 155.103 387.912 154.996C388.456 154.889 389.017 154.881 389.563 154.974C390.11 155.066 390.631 155.256 391.098 155.534C391.564 155.812 391.967 156.171 392.282 156.592C392.598 157.013 392.82 157.487 392.937 157.986C393.053 158.486 393.061 159.002 392.961 159.505C392.861 160.008 392.654 160.487 392.352 160.917V160.92Z" fill="black"/>
<path opacity="0.25" d="M392.044 181.271C389.959 182.238 382.003 181.57 382.003 181.57C382.003 181.57 386.147 175.282 388.237 174.319C389.239 173.854 390.401 173.774 391.467 174.098C392.533 174.421 393.416 175.12 393.922 176.042C394.427 176.964 394.514 178.033 394.162 179.014C393.811 179.994 393.05 180.807 392.048 181.271H392.044Z" fill="black"/>
<path opacity="0.25" d="M388.045 196.619C386.165 197.896 378.217 198.474 378.217 198.474C378.217 198.474 381.148 191.639 383.028 190.358C383.475 190.054 383.982 189.834 384.521 189.71C385.061 189.587 385.621 189.562 386.17 189.637C386.72 189.713 387.248 189.887 387.724 190.151C388.2 190.414 388.616 190.761 388.946 191.172C389.277 191.582 389.516 192.049 389.65 192.545C389.785 193.041 389.812 193.556 389.729 194.062C389.647 194.567 389.458 195.053 389.172 195.491C388.885 195.929 388.508 196.311 388.062 196.615L388.045 196.619Z" fill="black"/>
<path opacity="0.25" d="M374.961 166.262C376.636 167.759 384.447 169.312 384.447 169.312C384.447 169.312 382.533 162.174 380.858 160.665C380.459 160.309 379.988 160.029 379.472 159.84C378.955 159.651 378.403 159.558 377.848 159.565C377.292 159.573 376.743 159.681 376.233 159.883C375.723 160.086 375.261 160.379 374.874 160.746C374.487 161.112 374.182 161.546 373.977 162.021C373.771 162.496 373.67 163.003 373.678 163.514C373.686 164.026 373.804 164.53 374.024 165C374.244 165.469 374.563 165.894 374.961 166.25V166.262Z" fill="black"/>
<path opacity="0.25" d="M370.531 184.262C372.616 185.229 380.572 184.561 380.572 184.561C380.572 184.561 376.427 178.272 374.338 177.31C373.336 176.845 372.174 176.765 371.107 177.088C370.041 177.411 369.158 178.111 368.653 179.033C368.148 179.955 368.061 181.024 368.412 182.004C368.764 182.985 369.524 183.797 370.527 184.262H370.531Z" fill="black"/>
<path opacity="0.25" d="M368.835 202.306C370.715 203.583 378.662 204.161 378.662 204.161C378.662 204.161 375.748 197.342 373.864 196.049C373.417 195.745 372.91 195.525 372.371 195.401C371.832 195.278 371.271 195.253 370.722 195.328C370.172 195.404 369.644 195.578 369.168 195.842C368.692 196.105 368.277 196.452 367.946 196.863C367.616 197.273 367.376 197.74 367.242 198.236C367.107 198.732 367.081 199.247 367.163 199.753C367.245 200.258 367.434 200.744 367.721 201.182C368.007 201.62 368.384 202.002 368.831 202.306H368.835Z" fill="black"/>
<path d="M72.1235 213.295C72.1235 213.295 66.4237 195.495 73.1917 182.407C76.0695 176.928 76.9375 170.739 75.6656 164.768C75.038 161.93 74.1284 159.152 72.9482 156.467" stroke="#535461" stroke-width="2" stroke-miterlimit="10"/>
<path d="M77.1613 148.214C77.1613 150.395 72.8672 156.723 72.8672 156.723C72.8672 156.723 68.5688 150.375 68.5688 148.214C68.5688 147.166 69.0213 146.161 69.8266 145.421C70.6319 144.68 71.7241 144.264 72.8629 144.264C74.0018 144.264 75.094 144.68 75.8993 145.421C76.7046 146.161 77.157 147.166 77.157 148.214H77.1613Z" fill="#1CD1A1"/>
<path d="M84.2584 160.28C82.9765 162.112 75.6274 165.276 75.6274 165.276C75.6274 165.276 75.7599 157.808 77.0503 155.989C77.3509 155.542 77.7454 155.155 78.2107 154.85C78.676 154.545 79.2027 154.329 79.7601 154.213C80.3174 154.098 80.8942 154.086 81.4565 154.179C82.0189 154.271 82.5556 154.466 83.0351 154.751C83.5147 155.037 83.9275 155.407 84.2493 155.842C84.5712 156.276 84.7956 156.765 84.9096 157.279C85.0235 157.794 85.0246 158.325 84.9127 158.84C84.8009 159.356 84.5785 159.845 84.2584 160.28Z" fill="#1CD1A1"/>
<path d="M83.9463 180.929C81.8099 181.912 73.7559 181.232 73.7559 181.232C73.7559 181.232 77.9645 174.857 80.0795 173.875C81.0965 173.403 82.2756 173.322 83.3574 173.65C84.4391 173.978 85.3349 174.688 85.8477 175.624C86.3604 176.559 86.4482 177.644 86.0916 178.639C85.735 179.634 84.9633 180.458 83.9463 180.929Z" fill="#1CD1A1"/>
<path d="M79.8998 196.505C77.9942 197.802 69.9102 198.388 69.9102 198.388C69.9102 198.388 72.9011 191.451 74.7939 190.134C75.2472 189.825 75.7625 189.6 76.3102 189.474C76.8579 189.347 77.4273 189.321 77.9859 189.397C78.5446 189.473 79.0815 189.649 79.566 189.916C80.0506 190.183 80.4732 190.535 80.8099 190.952C81.1465 191.369 81.3906 191.843 81.5281 192.347C81.6657 192.85 81.694 193.374 81.6115 193.888C81.5289 194.402 81.3372 194.896 81.0472 195.341C80.7571 195.787 80.3745 196.176 79.9211 196.486L79.8998 196.505Z" fill="#1CD1A1"/>
<path d="M66.6076 165.696C68.3167 167.217 76.234 168.789 76.234 168.789C76.234 168.789 74.2942 161.549 72.5937 160.028C72.191 159.659 71.7125 159.367 71.186 159.169C70.6595 158.971 70.0955 158.871 69.5267 158.875C68.9579 158.879 68.3957 158.987 67.8728 159.193C67.3498 159.399 66.8765 159.698 66.4803 160.073C66.0841 160.449 65.7729 160.893 65.5648 161.38C65.3567 161.867 65.2558 162.387 65.2681 162.91C65.2803 163.433 65.4054 163.949 65.6361 164.427C65.8668 164.905 66.1985 165.336 66.6119 165.696H66.6076Z" fill="#1CD1A1"/>
<path d="M62.1127 183.979C64.249 184.962 72.3031 184.282 72.3031 184.282C72.3031 184.282 68.0945 177.907 65.9795 176.924C64.9624 176.453 63.7833 176.372 62.7016 176.7C61.6199 177.028 60.7241 177.738 60.2113 178.673C59.6985 179.609 59.6108 180.694 59.9673 181.689C60.3239 182.684 61.0956 183.508 62.1127 183.979Z" fill="#1CD1A1"/>
<path d="M60.3907 202.279C62.2963 203.576 70.3803 204.161 70.3803 204.161C70.3803 204.161 67.3894 197.224 65.4966 195.908C64.581 195.282 63.4327 195.017 62.3045 195.17C61.1763 195.324 60.1605 195.883 59.4806 196.725C58.8007 197.567 58.5123 198.624 58.679 199.661C58.8457 200.699 59.4537 201.634 60.3693 202.259L60.3907 202.279Z" fill="#1CD1A1"/>
<path opacity="0.5" d="M77.1613 148.214C77.1613 150.395 72.8672 156.723 72.8672 156.723C72.8672 156.723 68.5688 150.375 68.5688 148.214C68.5688 147.166 69.0213 146.161 69.8266 145.421C70.6319 144.68 71.7241 144.264 72.8629 144.264C74.0018 144.264 75.094 144.68 75.8993 145.421C76.7046 146.161 77.157 147.166 77.157 148.214H77.1613Z" fill="white"/>
<path opacity="0.5" d="M84.2584 160.28C82.9765 162.112 75.6274 165.276 75.6274 165.276C75.6274 165.276 75.7599 157.808 77.0503 155.989C77.3509 155.542 77.7454 155.155 78.2107 154.85C78.676 154.545 79.2027 154.329 79.7601 154.213C80.3174 154.098 80.8942 154.086 81.4565 154.179C82.0189 154.271 82.5556 154.466 83.0351 154.751C83.5147 155.037 83.9275 155.407 84.2493 155.842C84.5712 156.276 84.7956 156.765 84.9096 157.279C85.0235 157.794 85.0246 158.325 84.9127 158.84C84.8009 159.356 84.5785 159.845 84.2584 160.28Z" fill="white"/>
<path opacity="0.5" d="M83.9463 180.929C81.8099 181.912 73.7559 181.232 73.7559 181.232C73.7559 181.232 77.9645 174.857 80.0795 173.875C81.0965 173.403 82.2756 173.322 83.3574 173.65C84.4391 173.978 85.3349 174.688 85.8477 175.624C86.3604 176.559 86.4482 177.644 86.0916 178.639C85.735 179.634 84.9633 180.458 83.9463 180.929Z" fill="white"/>
<path opacity="0.5" d="M79.8998 196.505C77.9942 197.802 69.9102 198.388 69.9102 198.388C69.9102 198.388 72.9011 191.451 74.7939 190.134C75.2472 189.825 75.7625 189.6 76.3102 189.474C76.8579 189.347 77.4273 189.321 77.9859 189.397C78.5446 189.473 79.0815 189.649 79.566 189.916C80.0506 190.183 80.4732 190.535 80.8099 190.952C81.1465 191.369 81.3906 191.843 81.5281 192.347C81.6657 192.85 81.694 193.374 81.6115 193.888C81.5289 194.402 81.3372 194.896 81.0472 195.341C80.7571 195.787 80.3745 196.176 79.9211 196.486L79.8998 196.505Z" fill="white"/>
<path opacity="0.5" d="M66.6076 165.696C68.3167 167.217 76.234 168.789 76.234 168.789C76.234 168.789 74.2942 161.549 72.5937 160.028C72.191 159.659 71.7125 159.367 71.186 159.169C70.6595 158.971 70.0955 158.871 69.5267 158.875C68.9579 158.879 68.3957 158.987 67.8728 159.193C67.3498 159.399 66.8765 159.698 66.4803 160.073C66.0841 160.449 65.7729 160.893 65.5648 161.38C65.3567 161.867 65.2558 162.387 65.2681 162.91C65.2803 163.433 65.4054 163.949 65.6361 164.427C65.8668 164.905 66.1985 165.336 66.6119 165.696H66.6076Z" fill="white"/>
<path opacity="0.5" d="M62.1127 183.979C64.249 184.962 72.3031 184.282 72.3031 184.282C72.3031 184.282 68.0945 177.907 65.9795 176.924C64.9624 176.453 63.7833 176.372 62.7016 176.7C61.6199 177.028 60.7241 177.738 60.2113 178.673C59.6985 179.609 59.6108 180.694 59.9673 181.689C60.3239 182.684 61.0956 183.508 62.1127 183.979Z" fill="white"/>
<path opacity="0.5" d="M60.3907 202.279C62.2963 203.576 70.3803 204.161 70.3803 204.161C70.3803 204.161 67.3894 197.224 65.4966 195.908C64.581 195.282 63.4327 195.017 62.3045 195.17C61.1763 195.324 60.1605 195.883 59.4806 196.725C58.8007 197.567 58.5123 198.624 58.679 199.661C58.8457 200.699 59.4537 201.634 60.3693 202.259L60.3907 202.279Z" fill="white"/>
<path d="M39.6036 212.855C39.6036 212.855 35.2625 199.308 40.4196 189.305C42.6122 185.13 43.2733 180.414 42.3039 175.864C41.8254 173.707 41.1332 171.596 40.2359 169.556" stroke="#535461" stroke-width="2" stroke-miterlimit="10"/>
<path d="M43.4452 163.243C43.4452 164.905 40.1723 169.728 40.1723 169.728C40.1723 169.728 36.8994 164.905 36.8994 163.243C36.8994 162.445 37.2442 161.679 37.858 161.114C38.4718 160.55 39.3043 160.232 40.1723 160.232C41.0404 160.232 41.8728 160.55 42.4866 161.114C43.1004 161.679 43.4452 162.445 43.4452 163.243Z" fill="#1CD1A1"/>
<path d="M48.8544 172.452C47.8717 173.847 42.2744 176.26 42.2744 176.26C42.2744 176.26 42.377 170.577 43.3597 169.186C43.5934 168.854 43.8959 168.567 44.2498 168.343C44.6038 168.119 45.0024 167.961 45.4227 167.878C45.8431 167.795 46.2771 167.79 46.6998 167.861C47.1226 167.933 47.5259 168.08 47.8866 168.295C48.2474 168.51 48.5587 168.789 48.8026 169.114C49.0464 169.44 49.2182 169.806 49.3081 170.193C49.398 170.58 49.4042 170.979 49.3263 171.368C49.2485 171.757 49.0881 172.128 48.8544 172.459V172.452Z" fill="#1CD1A1"/>
<path d="M48.6194 188.189C47.0043 188.936 40.8516 188.421 40.8516 188.421C40.8516 188.421 44.0561 183.563 45.6712 182.812C46.4463 182.453 47.345 182.391 48.1695 182.641C48.994 182.891 49.6769 183.432 50.0678 184.145C50.4588 184.858 50.5258 185.684 50.2542 186.443C49.9825 187.201 49.3945 187.829 48.6194 188.189Z" fill="#1CD1A1"/>
<path d="M45.5261 200.062C44.0734 201.052 37.9121 201.497 37.9121 201.497C37.9121 201.497 40.1809 196.21 41.6337 195.208C42.3317 194.733 43.2062 194.533 44.0648 194.651C44.9234 194.77 45.6957 195.197 46.2119 195.839C46.728 196.481 46.9458 197.285 46.8172 198.075C46.6886 198.865 46.2242 199.575 45.5261 200.05V200.062Z" fill="#1CD1A1"/>
<path d="M35.4036 176.582C36.6854 177.742 42.7399 178.941 42.7399 178.941C42.7399 178.941 41.2615 173.438 39.9626 172.259C39.654 171.984 39.2895 171.767 38.8898 171.621C38.4901 171.475 38.0632 171.404 37.6333 171.41C37.2034 171.416 36.779 171.499 36.3843 171.656C35.9897 171.813 35.6325 172.04 35.3331 172.324C35.0338 172.608 34.7981 172.943 34.6397 173.311C34.4812 173.678 34.403 174.071 34.4096 174.467C34.4161 174.862 34.5073 175.252 34.6778 175.615C34.8484 175.978 35.095 176.307 35.4036 176.582Z" fill="#1CD1A1"/>
<path d="M31.9769 190.508C33.592 191.254 39.7447 190.74 39.7447 190.74C39.7447 190.74 36.5402 185.882 34.9251 185.131C34.15 184.772 33.2513 184.71 32.4268 184.96C31.6023 185.21 30.9194 185.751 30.5284 186.464C30.1375 187.177 30.0705 188.003 30.3421 188.762C30.6137 189.52 31.2018 190.148 31.9769 190.508Z" fill="#1CD1A1"/>
<path d="M30.6651 204.46C32.1178 205.45 38.2791 205.895 38.2791 205.895C38.2791 205.895 36.0103 200.608 34.5575 199.606C34.2119 199.371 33.8193 199.201 33.4022 199.105C32.985 199.01 32.5515 198.991 32.1264 199.049C31.7013 199.108 31.2928 199.243 30.9244 199.447C30.556 199.65 30.2349 199.919 29.9793 200.237C29.7237 200.555 29.5387 200.916 29.4349 201.3C29.331 201.683 29.3103 202.082 29.374 202.473C29.4377 202.864 29.5845 203.24 29.806 203.579C30.0275 203.918 30.3194 204.213 30.6651 204.448V204.46Z" fill="#1CD1A1"/>
<path opacity="0.25" d="M43.4452 163.243C43.4452 164.905 40.1723 169.728 40.1723 169.728C40.1723 169.728 36.8994 164.905 36.8994 163.243C36.8994 162.445 37.2442 161.679 37.858 161.114C38.4718 160.55 39.3043 160.232 40.1723 160.232C41.0404 160.232 41.8728 160.55 42.4866 161.114C43.1004 161.679 43.4452 162.445 43.4452 163.243Z" fill="black"/>
<path opacity="0.25" d="M48.8544 172.452C47.8717 173.847 42.2744 176.26 42.2744 176.26C42.2744 176.26 42.377 170.577 43.3597 169.186C43.5934 168.854 43.8959 168.567 44.2498 168.343C44.6038 168.119 45.0024 167.961 45.4227 167.878C45.8431 167.795 46.2771 167.79 46.6998 167.861C47.1226 167.933 47.5259 168.08 47.8866 168.295C48.2474 168.51 48.5587 168.789 48.8026 169.114C49.0464 169.44 49.2182 169.806 49.3081 170.193C49.398 170.58 49.4042 170.979 49.3263 171.368C49.2485 171.757 49.0881 172.128 48.8544 172.459V172.452Z" fill="black"/>
<path opacity="0.25" d="M48.6194 188.189C47.0043 188.936 40.8516 188.421 40.8516 188.421C40.8516 188.421 44.0561 183.563 45.6712 182.812C46.4463 182.453 47.345 182.391 48.1695 182.641C48.994 182.891 49.6769 183.432 50.0678 184.145C50.4588 184.858 50.5258 185.684 50.2542 186.443C49.9825 187.201 49.3945 187.829 48.6194 188.189Z" fill="black"/>
<path opacity="0.25" d="M45.5261 200.062C44.0734 201.052 37.9121 201.497 37.9121 201.497C37.9121 201.497 40.1809 196.21 41.6337 195.208C42.3317 194.733 43.2062 194.533 44.0648 194.651C44.9234 194.77 45.6957 195.197 46.2119 195.839C46.728 196.481 46.9458 197.285 46.8172 198.075C46.6886 198.865 46.2242 199.575 45.5261 200.05V200.062Z" fill="black"/>
<path opacity="0.25" d="M35.4036 176.582C36.6854 177.742 42.7399 178.941 42.7399 178.941C42.7399 178.941 41.2615 173.438 39.9626 172.259C39.654 171.984 39.2895 171.767 38.8898 171.621C38.4901 171.475 38.0632 171.404 37.6333 171.41C37.2034 171.416 36.779 171.499 36.3843 171.656C35.9897 171.813 35.6325 172.04 35.3331 172.324C35.0338 172.608 34.7981 172.943 34.6397 173.311C34.4812 173.678 34.403 174.071 34.4096 174.467C34.4161 174.862 34.5073 175.252 34.6778 175.615C34.8484 175.978 35.095 176.307 35.4036 176.582Z" fill="black"/>
<path opacity="0.25" d="M31.9769 190.508C33.592 191.254 39.7447 190.74 39.7447 190.74C39.7447 190.74 36.5402 185.882 34.9251 185.131C34.15 184.772 33.2513 184.71 32.4268 184.96C31.6023 185.21 30.9194 185.751 30.5284 186.464C30.1375 187.177 30.0705 188.003 30.3421 188.762C30.6137 189.52 31.2018 190.148 31.9769 190.508Z" fill="black"/>
<path opacity="0.25" d="M30.6651 204.46C32.1178 205.45 38.2791 205.895 38.2791 205.895C38.2791 205.895 36.0103 200.608 34.5575 199.606C34.2119 199.371 33.8193 199.201 33.4022 199.105C32.985 199.01 32.5515 198.991 32.1264 199.049C31.7013 199.108 31.2928 199.243 30.9244 199.447C30.556 199.65 30.2349 199.919 29.9793 200.237C29.7237 200.555 29.5387 200.916 29.4349 201.3C29.331 201.683 29.3103 202.082 29.374 202.473C29.4377 202.864 29.5845 203.24 29.806 203.579C30.0275 203.918 30.3194 204.213 30.6651 204.448V204.46Z" fill="black"/>
<g opacity="0.7">
<path opacity="0.6" d="M423 31.4424H0V229.92H423V31.4424Z" fill="#1CD1A1"/>
<path opacity="0.25" d="M0 31.4424V230.313H423V31.4424H0ZM18.8 48.7355H202.1V122.231H18.8V48.7355ZM18.8 139.524H202.1V213.02H18.8V139.524ZM404.2 213.02H220.9V139.524H404.2V213.02ZM404.2 122.231H220.9V48.7355H404.2V122.231Z" fill="black"/>
</g>
<g opacity="0.7">
<path opacity="0.7" d="M155.147 238.52C155.147 238.52 118.128 226.069 113.061 243.594L127.259 276.793L128.78 298.016H159.711V280.019C159.711 280.019 155.147 262.035 166.812 250.971L155.147 238.52Z" fill="url(#paint0_linear)"/>
<g opacity="0.1">
<path opacity="0.1" d="M161.347 139.721C159.774 139.241 157.881 138.813 156.6 139.768C155.856 140.322 155.536 141.214 154.959 141.914C153.04 144.229 149.174 143.796 146.119 144.626C141.628 145.844 138.855 149.936 137.265 153.944C130.233 171.631 138.073 191.86 131.95 209.821C130.147 215.107 127.199 220.975 130.113 225.837C131.083 227.46 132.677 228.812 133.147 230.604C133.805 233.037 132.536 236.228 134.753 237.71C135.445 238.17 136.321 238.315 137.15 238.496C142.141 239.707 145.922 243.279 149.725 246.455C153.528 249.63 158.099 252.704 163.256 252.496C164.923 252.369 166.569 252.068 168.162 251.599L193.755 245.044C196.319 244.387 199.105 243.594 200.592 241.581C201.502 240.351 201.788 238.83 202.019 237.368C202.902 231.781 203.32 226.141 203.271 220.495C203.271 218.632 203.177 216.726 202.416 214.993C201.561 212.993 199.852 211.393 198.609 209.565C196.208 206.028 195.563 201.78 194.969 197.665C194.024 191.113 193.08 184.431 194.388 177.931C194.947 175.14 195.913 172.428 196.554 169.658C197.592 165.143 197.757 160.496 197.041 155.929C196.443 152.136 195.161 148.289 192.341 145.435C190.495 143.534 187.987 142.283 185.248 141.898C181.787 141.505 180.065 143.337 176.981 144.02C172.417 145.07 165.735 141.053 161.347 139.721Z" fill="url(#paint1_linear)"/>
</g>
<path opacity="0.7" d="M161.347 138.781C159.774 138.302 157.881 137.873 156.6 138.828C155.856 139.383 155.536 140.275 154.959 140.974C153.04 143.289 149.174 142.857 146.119 143.686C141.628 144.905 138.855 148.996 137.265 153.005C130.233 170.691 138.073 190.92 131.95 208.881C130.147 214.168 127.199 220.035 130.113 224.897C131.083 226.52 132.677 227.872 133.147 229.665C133.805 232.097 132.536 235.289 134.753 236.771C135.445 237.23 136.321 237.376 137.15 237.557C142.141 238.767 145.922 242.34 149.725 245.515C153.528 248.691 158.091 251.8 163.256 251.58C164.923 251.453 166.569 251.153 168.162 250.684L193.755 244.128C196.319 243.472 199.105 242.678 200.592 240.665C201.502 239.435 201.788 237.914 202.019 236.452C202.902 230.865 203.32 225.225 203.271 219.58C203.271 217.717 203.177 215.81 202.416 214.077C201.561 212.077 199.852 210.477 198.609 208.65C196.208 205.112 195.563 200.864 194.969 196.749C194.024 190.197 193.08 183.516 194.388 177.015C194.947 174.224 195.913 171.513 196.554 168.742C197.592 164.227 197.757 159.58 197.041 155.013C196.443 151.221 195.161 147.373 192.341 144.52C190.495 142.618 187.987 141.368 185.248 140.982C181.787 140.589 180.065 142.421 176.981 143.105C172.417 144.126 165.735 140.133 161.347 138.781Z" fill="url(#paint2_linear)"/>
<path opacity="0.7" d="M154.134 103.877C154.134 103.877 154.643 121.398 148.559 120.938C142.474 120.478 165.782 149.986 165.782 149.986L185.556 140.302C185.556 140.302 173.9 123.245 182.018 112.637C190.136 102.029 154.134 103.877 154.134 103.877Z" fill="url(#paint3_linear)"/>
<g opacity="0.1">
<path opacity="0.1" d="M120.157 252.814C120.157 252.814 116.103 278.176 105.959 271.258C95.8157 264.341 97.3368 252.814 97.3368 252.814C97.3368 252.814 117.115 203.937 116.103 196.556C115.09 189.175 149.857 131.825 149.857 131.825L162.735 226.068C162.735 226.068 124.212 238.979 120.157 252.814Z" fill="url(#paint4_linear)"/>
</g>
<path opacity="0.7" d="M119.145 252.814C119.145 252.814 115.09 278.176 104.947 271.258C94.8035 264.341 96.3246 252.814 96.3246 252.814C96.3246 252.814 116.103 203.937 115.086 196.556C114.069 189.175 148.841 131.825 148.841 131.825L161.719 226.068C161.719 226.068 123.2 238.979 119.145 252.814Z" fill="url(#paint5_linear)"/>
<path opacity="0.7" d="M155.147 114.944C155.147 114.944 135.369 127.384 127.755 126.932L121.845 128.409C116.002 129.851 110.714 132.767 106.578 136.828C102.442 140.888 99.6228 145.932 98.4395 151.39L98.3455 151.83C95.3118 166.588 94.2949 207.168 94.2949 207.168C94.2949 207.168 94.8034 217.78 99.8708 220.531L132.344 240.819C132.344 240.819 131.331 218.687 143.5 216.38C155.668 214.073 140.457 215.457 140.457 215.457L118.145 203.469C118.145 203.469 118.654 185.485 124.738 179.495C130.822 173.505 152.122 142.157 152.122 142.157L146.038 122.793L155.147 114.944Z" fill="url(#paint6_linear)"/>
<g opacity="0.1">
<path opacity="0.1" d="M176.951 126.932C176.951 126.932 189.406 129.93 198.126 131.396C199.485 131.62 200.767 132.135 201.869 132.9C202.971 133.665 203.861 134.658 204.467 135.798C207.099 140.794 211.111 149.829 210.419 157.364L218.024 184.569L239.815 208.543L220.045 216.848L197.742 194.253L215.995 237.136L182.018 238.52C182.018 238.52 171.875 169.347 174.413 157.827L176.951 126.932Z" fill="url(#paint7_linear)"/>
</g>
<path opacity="0.7" d="M177.963 126.932C177.963 126.932 190.418 129.93 199.139 131.396C200.498 131.62 201.78 132.135 202.882 132.9C203.984 133.665 204.874 134.658 205.48 135.798C208.112 140.794 212.124 149.829 211.432 157.364L219.037 184.569L240.828 208.543L221.054 216.844L198.742 194.249L217.012 237.136L183.035 238.52C183.035 238.52 172.892 169.347 175.43 157.827L177.963 126.932Z" fill="url(#paint8_linear)"/>
<path opacity="0.7" d="M153.481 113.475L160.471 144.685L149.063 149.987L142.812 121.874L153.481 113.475Z" fill="url(#paint9_linear)"/>
<path opacity="0.7" d="M172.64 146.992L177.963 126.932L184.813 138.691L181.262 148.375L172.64 146.992Z" fill="url(#paint10_linear)"/>
<path opacity="0.1" d="M191.91 152.985C191.91 152.985 191.91 184.341 196.473 186.644L191.91 152.985Z" fill="url(#paint11_linear)"/>
<path opacity="0.1" d="M126.494 160.822C126.494 160.822 115.971 191.702 118.949 194.937L126.494 160.822Z" fill="url(#paint12_linear)"/>
<path opacity="0.1" d="M124.469 203.238C124.469 203.238 144.756 215.3 147.542 215.492L124.469 203.238Z" fill="url(#paint13_linear)"/>
<g opacity="0.1">
<path opacity="0.1" d="M154.638 105.72C154.638 105.72 154.715 108.42 154.442 111.67C156.251 115.53 159.251 118.817 163.072 121.122C166.892 123.428 171.364 124.651 175.934 124.64C177.186 124.639 178.436 124.547 179.672 124.365C179.54 120.914 180.262 117.452 182.527 114.496C190.64 103.877 154.638 105.72 154.638 105.72Z" fill="url(#paint14_linear)"/>
</g>
<path opacity="0.7" d="M175.43 122.785C188.312 122.785 198.755 113.288 198.755 101.573C198.755 89.8586 188.312 80.3618 175.43 80.3618C162.548 80.3618 152.105 89.8586 152.105 101.573C152.105 113.288 162.548 122.785 175.43 122.785Z" fill="url(#paint15_linear)"/>
<g opacity="0.1">
<path opacity="0.1" d="M190.23 92.6563C193.055 93.0022 196.64 92.1454 197.199 89.5986C197.887 86.3836 193.157 84.2927 192.427 81.0817C192.153 79.879 192.478 78.6213 192.32 77.399C192.004 74.9387 189.816 73.0443 187.59 71.6137C180.522 67.1123 171.96 65.0369 163.398 65.7497C162.338 65.8401 161.223 65.9974 160.407 66.6144C159.475 67.3101 159.125 68.442 158.48 69.3656C156.292 72.5805 151.379 72.9578 147.854 74.9623C143.73 77.3204 141.688 81.907 141.504 86.3247C141.321 90.7423 142.705 95.0773 144.068 99.322C145.234 102.93 146.456 106.636 149.016 109.592C151.575 112.547 155.822 114.611 159.843 113.722C158.001 112.516 159.339 109.714 161.334 108.731C163.329 107.748 165.808 107.579 167.512 106.224C169.217 104.868 169.73 102.647 170.285 100.627C170.986 98.0801 171.994 95.4939 174.045 93.6349C178.066 89.9955 185.308 92.055 190.23 92.6563Z" fill="url(#paint16_linear)"/>
</g>
<path opacity="0.7" d="M189.709 92.1961C192.533 92.542 196.118 91.6852 196.678 89.1384C197.366 85.9234 192.636 83.8325 191.905 80.6215C191.632 79.4188 191.956 78.1612 191.798 76.9388C191.482 74.4785 189.294 72.5841 187.068 71.1535C180.005 66.6543 171.45 64.5777 162.893 65.2856C161.834 65.376 160.719 65.5332 159.902 66.1503C158.971 66.8459 158.621 67.9779 157.975 68.9015C155.788 72.1164 150.874 72.4937 147.349 74.4982C143.226 76.8563 141.184 81.4429 141 85.8605C140.816 90.2781 142.201 94.6132 143.564 98.8579C144.73 102.466 145.952 106.172 148.511 109.128C151.071 112.083 155.318 114.147 159.338 113.258C157.497 112.052 158.834 109.249 160.83 108.267C162.825 107.284 165.303 107.115 167.008 105.759C168.713 104.403 169.225 102.183 169.781 100.163C170.482 97.6159 171.49 95.0298 173.541 93.1708C177.557 89.5353 184.8 91.5909 189.709 92.1961Z" fill="url(#paint17_linear)"/>
<g opacity="0.1">
<path opacity="0.1" d="M171.396 104.435C171.054 106.628 170.294 110.425 168.862 112.822C166.97 115.942 165.351 119.196 164.021 122.553C164.021 122.553 173.362 129.129 178.121 133.621C179.587 135.032 181.462 136.026 183.524 136.485C185.585 136.944 187.747 136.849 189.752 136.211C192.226 135.393 194.392 133.814 194.969 130.85C195.875 126.177 194.798 122.652 193.781 120.565C193.291 119.579 193.034 118.508 193.028 117.424C193.023 116.34 193.267 115.267 193.747 114.276C194.097 113.569 194.507 113.015 194.965 112.877C194.965 112.877 185.838 111.034 185.33 113.337C184.821 115.64 177.724 117.947 176.203 113.797L175.776 104.647C175.749 104.129 175.506 103.639 175.097 103.282C174.688 102.925 174.144 102.727 173.58 102.729C173.053 102.724 172.543 102.894 172.142 103.208C171.741 103.521 171.476 103.957 171.396 104.435Z" fill="url(#paint18_linear)"/>
</g>
<path opacity="0.7" d="M171.396 104.899C171.054 107.092 170.294 110.888 168.862 113.286C166.97 116.406 165.351 119.66 164.021 123.017C164.021 123.017 173.362 129.593 178.121 134.085C179.587 135.496 181.462 136.49 183.524 136.949C185.585 137.408 187.747 137.313 189.752 136.675C192.226 135.857 194.392 134.277 194.969 131.314C195.875 126.641 194.798 123.115 193.781 121.028C193.291 120.042 193.034 118.972 193.028 117.888C193.023 116.803 193.267 115.731 193.747 114.74C194.097 114.033 194.507 113.478 194.965 113.341C194.965 113.341 185.838 111.498 185.33 113.801C184.821 116.104 177.724 118.411 176.203 114.261L175.776 105.111C175.749 104.592 175.506 104.103 175.097 103.746C174.688 103.388 174.144 103.19 173.58 103.193C173.053 103.188 172.543 103.358 172.142 103.671C171.741 103.985 171.476 104.42 171.396 104.899Z" fill="url(#paint19_linear)"/>
</g>
<path d="M155.643 238.217C155.643 238.217 120.106 226.127 115.24 243.142L128.87 275.37L130.318 295.992H160.014V278.522C160.014 278.522 155.634 261.06 166.85 250.31L155.643 238.217Z" fill="#535461"/>
<path opacity="0.1" d="M161.594 142.275C160.086 141.811 158.266 141.395 157.04 142.322C156.326 142.861 156.019 143.725 155.463 144.405C153.622 146.653 149.909 146.233 146.977 147.039C142.666 148.218 140.009 152.195 138.479 156.078C131.728 173.249 139.252 192.901 133.377 210.339C131.668 215.472 128.818 221.171 131.613 225.891C132.544 227.463 134.061 228.78 134.527 230.521C135.159 232.879 133.941 235.984 136.069 237.423C136.731 237.871 137.573 238.008 138.368 238.209C143.158 239.388 146.789 242.854 150.438 245.94C154.087 249.025 158.48 252.008 163.427 251.807C165.025 251.684 166.602 251.393 168.127 250.939L192.696 244.572C195.161 243.931 197.823 243.161 199.263 241.207C200.117 240.028 200.412 238.543 200.634 237.116C201.482 231.69 201.883 226.213 201.835 220.731C201.835 218.923 201.745 217.072 201.023 215.39C200.169 213.448 198.562 211.896 197.366 210.115C195.063 206.688 194.439 202.553 193.871 198.556C192.965 192.193 192.059 185.704 193.311 179.392C193.849 176.684 194.776 174.051 195.392 171.359C196.389 166.974 196.548 162.463 195.862 158.028C195.289 154.345 194.054 150.607 191.354 147.836C189.59 145.994 187.18 144.779 184.543 144.401C181.219 144.008 179.566 145.801 176.605 146.465C172.225 147.451 165.807 143.572 161.594 142.275Z" fill="black"/>
<path d="M161.594 141.379C160.086 140.915 158.266 140.499 157.04 141.426C156.326 141.965 156.019 142.829 155.463 143.509C153.622 145.757 149.909 145.337 146.977 146.143C142.666 147.322 140.009 151.299 138.479 155.182C131.728 172.353 139.252 192.005 133.377 209.443C131.668 214.576 128.818 220.275 131.613 224.995C132.544 226.567 134.061 227.884 134.527 229.625C135.159 231.983 133.941 235.088 136.069 236.527C136.731 236.975 137.573 237.112 138.368 237.313C143.158 238.492 146.789 241.958 150.438 245.044C154.087 248.129 158.48 251.112 163.427 250.911C165.025 250.788 166.602 250.497 168.127 250.043L192.7 243.68C195.165 243.039 197.827 242.269 199.267 240.315C200.122 239.136 200.416 237.651 200.639 236.224C201.486 230.798 201.887 225.321 201.839 219.839C201.839 218.031 201.75 216.18 201.027 214.498C200.173 212.556 198.566 211.004 197.37 209.223C195.067 205.796 194.443 201.661 193.875 197.664C192.969 191.301 192.063 184.812 193.315 178.5C193.854 175.792 194.781 173.159 195.396 170.467C196.394 166.082 196.553 161.571 195.866 157.135C195.293 153.453 194.059 149.715 191.358 146.944C189.6 145.1 187.195 143.881 184.56 143.497C181.236 143.104 179.583 144.897 176.622 145.561C172.225 146.559 165.807 142.676 161.594 141.379Z" fill="#E0E0E0"/>
<path d="M154.673 107.469C154.673 107.469 155.16 124.483 149.319 124.035C143.478 123.587 165.872 152.247 165.872 152.247L184.855 142.842C184.855 142.842 173.661 126.275 181.437 115.974C189.214 105.673 154.673 107.469 154.673 107.469Z" fill="#FDA57D"/>
<path opacity="0.1" d="M122.054 252.103C122.054 252.103 118.162 276.73 108.424 270.013C98.6869 263.296 100.148 252.103 100.148 252.103C100.148 252.103 119.132 204.637 118.158 197.472C117.184 190.307 150.579 134.607 150.579 134.607L162.94 226.127C162.94 226.127 125.947 238.669 122.054 252.103Z" fill="black"/>
<path d="M121.08 252.103C121.08 252.103 117.188 276.73 107.45 270.013C97.7128 263.296 99.1741 252.103 99.1741 252.103C99.1741 252.103 118.158 204.637 117.184 197.472C116.209 190.307 149.605 134.607 149.605 134.607L161.966 226.127C161.966 226.127 124.973 238.669 121.08 252.103Z" fill="#5AA9C7"/>
<path d="M155.642 118.214C155.642 118.214 136.659 130.304 129.357 129.856L123.682 131.29C118.048 132.715 112.959 135.559 108.989 139.502C105.019 143.445 102.325 148.33 101.212 153.606L101.122 154.035C98.1999 168.364 97.23 207.769 97.23 207.769C97.23 207.769 97.7171 218.066 102.584 220.739L133.736 240.461C133.736 240.461 132.762 218.967 144.448 216.73C156.134 214.494 141.525 215.834 141.525 215.834L120.106 204.189C120.106 204.189 120.593 186.727 126.434 180.906C132.275 175.085 152.72 144.637 152.72 144.637L146.879 125.812L155.642 118.214Z" fill="#5AA9C7"/>
<path opacity="0.1" d="M176.575 129.86C176.575 129.86 188.539 132.772 196.905 134.183C198.214 134.404 199.447 134.906 200.505 135.65C201.562 136.393 202.414 137.356 202.989 138.459C205.514 143.313 209.364 152.082 208.702 159.4L216.004 185.819L236.94 209.102L217.952 217.174L196.546 195.236L214.064 236.896L181.446 238.217C181.446 238.217 171.708 171.049 174.144 159.856L176.575 129.86Z" fill="black"/>
<path d="M177.549 129.86C177.549 129.86 189.513 132.772 197.879 134.183C199.188 134.404 200.421 134.906 201.479 135.65C202.536 136.393 203.388 137.356 203.963 138.459C206.488 143.313 210.338 152.082 209.676 159.4L216.978 185.819L237.914 209.102L218.93 217.163L197.511 195.22L215.029 236.881L182.416 238.217C182.416 238.217 172.678 171.049 175.114 159.856L177.549 129.86Z" fill="#5AA9C7"/>
<path d="M154.044 116.792L160.757 147.098L149.802 152.246L143.803 124.947L154.044 116.792Z" fill="#E0E0E0"/>
<path d="M172.438 149.338L177.549 129.86L184.12 141.277L180.715 150.682L172.438 149.338Z" fill="#E0E0E0"/>
<path opacity="0.1" d="M190.935 155.159C190.935 155.159 190.935 185.606 195.315 187.847L190.935 155.159Z" fill="black"/>
<path opacity="0.1" d="M128.139 162.756C128.139 162.756 118.034 192.744 120.875 195.884L128.139 162.756Z" fill="black"/>
<path opacity="0.1" d="M126.191 203.965C126.191 203.965 145.666 215.677 148.341 215.866L126.191 203.965Z" fill="black"/>
<path opacity="0.1" d="M155.156 109.261C155.156 109.261 155.233 111.883 154.968 115.039C156.922 119.29 160.372 122.815 164.764 125.048C169.156 127.281 174.236 128.092 179.19 127.352C179.062 124 179.758 120.639 181.929 117.766C189.709 107.469 155.156 109.261 155.156 109.261Z" fill="black"/>
<path d="M173.684 131.469C186.051 131.469 196.077 122.247 196.077 110.871C196.077 99.4947 186.051 90.2725 173.684 90.2725C161.316 90.2725 151.291 99.4947 151.291 110.871C151.291 122.247 161.316 131.469 173.684 131.469Z" fill="#FDA57D"/>
<path opacity="0.1" d="M189.32 96.5743C192.034 96.9084 195.49 96.0752 196.012 93.607C196.674 90.4824 192.132 88.4544 191.431 85.3535C191.166 84.1744 191.482 82.9639 191.329 81.7809C191.025 79.3913 188.923 77.5519 186.787 76.1645C180.022 71.8 171.793 69.7835 163.564 70.4735C162.548 70.5639 161.475 70.7132 160.689 71.3106C159.796 71.9866 159.45 73.0832 158.839 73.9911C156.737 77.1117 152.002 77.4812 148.64 79.4266C144.679 81.7022 142.722 86.1709 142.543 90.4628C142.363 94.7546 143.696 98.9639 145.012 103.083C146.132 106.589 147.307 110.185 149.764 113.054C152.22 115.923 156.301 117.927 160.155 117.063C158.386 115.884 159.672 113.168 161.586 112.217C163.5 111.266 165.859 111.101 167.521 109.78C169.183 108.459 169.657 106.306 170.183 104.344C170.858 101.868 171.832 99.3609 173.793 97.553C177.647 93.9764 184.582 95.9887 189.32 96.5743Z" fill="black"/>
<path d="M188.855 96.1263C191.568 96.4604 195.025 95.6272 195.546 93.159C196.208 90.0344 191.666 88.0064 190.965 84.9054C190.701 83.7263 191.017 82.5158 190.863 81.3328C190.538 78.9236 188.427 77.0763 186.291 75.6968C179.53 71.3337 171.307 69.3159 163.082 70.0019C162.065 70.0923 160.992 70.2416 160.206 70.839C159.313 71.515 158.967 72.6116 158.356 73.5195C156.254 76.6401 151.52 77.0095 148.157 78.955C144.196 81.2306 142.239 85.6993 142.06 89.9912C141.88 94.283 143.213 98.4923 144.529 102.611C145.649 106.117 146.824 109.713 149.281 112.582C151.737 115.451 155.818 117.456 159.672 116.591C157.903 115.412 159.189 112.696 161.103 111.745C163.017 110.794 165.376 110.629 167.038 109.308C168.7 107.988 169.175 105.834 169.7 103.873C170.375 101.397 171.349 98.8893 173.311 97.0814C177.16 93.5402 184.112 95.5486 188.855 96.1263Z" fill="#72351C"/>
<path opacity="0.1" d="M171.242 108.011C170.913 110.141 170.183 113.828 168.807 116.155C166.989 119.181 165.435 122.335 164.158 125.587C164.158 125.587 173.131 131.974 177.681 136.337C179.078 137.704 180.877 138.67 182.858 139.117C184.84 139.563 186.92 139.471 188.846 138.852C191.222 138.066 193.302 136.521 193.854 133.648C194.708 129.109 193.691 125.686 192.717 123.658C192.25 122.699 192.007 121.66 192.004 120.609C192.001 119.559 192.238 118.519 192.7 117.558C193.038 116.87 193.431 116.335 193.871 116.198C193.871 116.198 185.107 114.406 184.62 116.646C184.133 118.886 177.318 121.123 175.857 117.094L175.455 108.208C175.433 107.707 175.201 107.233 174.808 106.885C174.414 106.538 173.89 106.344 173.345 106.345C172.834 106.341 172.34 106.508 171.953 106.815C171.566 107.121 171.314 107.546 171.242 108.011Z" fill="black"/>
<path d="M345.236 235.859C345.236 235.859 336.439 227.759 333.204 216.994H333.96L333.597 216.058H333.96L332.815 213.063C336.058 210.131 338.455 207.29 338.844 205.674C339.502 202.955 340.156 188.24 340.553 178.013L340.904 178.092C341.758 176.748 341.938 175.054 341.878 173.517C341.91 171.791 341.668 170.07 341.16 168.408L339.575 153.807C339.422 152.464 338.974 151.163 338.258 149.984C337.542 148.805 336.573 147.772 335.409 146.949L319.343 135.484C320.189 134.435 321.263 133.56 322.497 132.914C323.415 132.466 324.484 132.159 325.103 131.393C326.223 130.005 325.27 127.938 326.035 126.358C326.607 125.179 328.017 124.519 328.842 123.461C330.529 121.296 329.307 118.305 328.047 115.907L320.724 101.982C318.694 98.1269 316.647 94.2399 313.81 90.8441C305.124 80.4368 288.409 75.2606 274.783 79.7726C270.899 81.0578 267.323 83.526 265.665 87.0003C265.088 88.2108 264.742 89.5314 263.905 90.6044C262.038 92.9979 258.393 93.4499 255.787 95.1713C252.458 97.3841 251.223 101.55 251.689 105.304C252.155 109.057 254.026 112.523 255.872 115.915C257.812 119.452 259.816 123.096 262.999 125.776C264.486 127.03 266.306 128.193 266.78 129.997C267.186 131.546 266.468 133.142 266.618 134.745C266.68 135.412 266.893 136.06 267.242 136.647C260.051 137.477 254.949 142.971 252.663 151.146C252.522 151.653 252.467 151.932 252.467 151.932L251.454 160.398C251.433 160.763 251.454 161.117 251.454 161.467C251.362 163.372 251.804 165.266 252.736 166.969V196.694L221.972 214.608C217.358 216.494 218.383 231.583 227.612 234.409C236.841 237.234 245.049 219.352 245.049 219.352C250.668 219.006 260.119 212.112 265.199 206.775C265.886 207.794 266.799 208.669 267.878 209.341C264.212 216.942 256.962 232.667 258.12 235.859C258.816 237.785 276.821 237.961 296.284 237.584C296.781 237.839 297.303 238.05 297.843 238.217C299.92 238.854 301.945 238.437 303.825 237.411C324.881 236.857 345.236 235.859 345.236 235.859ZM319.254 178.222C319.681 177.133 321.082 176.539 322.958 176.256V187.721L319.254 178.222ZM317.463 137.936L317.523 137.854L317.463 137.936Z" fill="url(#paint20_linear)"/>
<path d="M271.258 163.892C271.258 163.892 270.284 195.684 269.31 199.716C268.336 203.748 254.227 215.814 246.917 216.282C246.917 216.282 239.128 233.296 230.364 230.612C221.601 227.927 220.627 213.598 225.011 211.805L254.227 194.787V160.755L271.258 163.892Z" fill="#FDB797"/>
<path d="M270.528 202.844C270.528 202.844 257.872 227.919 259.333 231.952C260.795 235.984 342.087 231.952 342.087 231.952C342.087 231.952 326.996 218.07 329.919 202.844H270.528Z" fill="#3AD29F"/>
<path d="M280.265 128.515C280.265 128.515 282.214 145.977 278.804 150.01C275.394 154.042 292.434 156.298 293.895 156.298C295.357 156.298 310.935 151.374 313.853 150.01C316.771 148.646 319.207 138.817 319.207 138.817C319.207 138.817 304.603 141.505 300.223 125.847L280.265 128.515Z" fill="#FDB797"/>
<path d="M275.164 83.7182C271.476 84.9405 268.075 87.283 266.503 90.5844C265.956 91.732 265.627 92.9858 264.832 94.0076C263.059 96.2793 259.598 96.7077 257.141 98.3309C253.98 100.434 252.809 104.387 253.249 107.956C253.689 111.525 255.466 114.814 257.218 118.021C259.06 121.39 260.965 124.84 263.986 127.387C265.396 128.566 267.127 129.683 267.575 131.396C267.96 132.866 267.281 134.403 267.422 135.908C267.772 139.63 272.609 141.363 276.646 141.776C278.402 141.957 280.411 141.965 281.65 140.805C282.282 140.208 282.603 139.398 283 138.651C283.919 136.941 285.335 135.498 287.091 134.483C288.847 133.468 290.874 132.921 292.948 132.901C295.022 132.881 297.061 133.391 298.839 134.373C300.617 135.354 302.065 136.77 303.022 138.463C303.97 140.137 304.522 142.173 306.243 143.179C308.88 144.751 312.409 142.908 314.362 140.636C316.314 138.365 317.716 135.527 320.489 134.163C321.343 133.735 322.377 133.448 322.967 132.717C324.031 131.4 323.125 129.435 323.851 127.938C324.398 126.81 325.736 126.193 326.518 125.186C328.12 123.131 326.945 120.289 325.761 118.014L318.805 104.788C316.878 101.125 314.934 97.4348 312.242 94.2081C303.975 84.351 288.101 79.4342 275.164 83.7182Z" fill="#1CD1A1"/>
<path opacity="0.1" d="M292.921 153.143C292.921 153.143 311.905 153.143 316.775 137.029L332.755 148.427C333.859 149.213 334.776 150.199 335.452 151.322C336.128 152.446 336.548 153.685 336.686 154.963L338.195 168.829C338.195 168.829 339.904 173.977 337.951 177.114C337.951 177.114 317.75 172.397 317.263 177.786L331.363 214.054C331.363 214.054 309.456 214.502 303.615 210.91C303.615 210.91 279.761 215.386 273.92 210.462C268.079 205.537 262.238 205.985 267.084 194.788C267.084 194.788 257.346 185.831 261.73 173.293C266.114 160.756 261.973 173.517 261.973 173.517C261.973 173.517 252.518 169.265 253.005 161.184L253.979 153.123C253.979 153.123 254.03 152.856 254.167 152.376C257.137 141.765 265.11 135.869 276.321 139.627C279.598 140.719 282.948 139.466 282.948 139.466C282.948 139.466 279.291 154.039 292.921 153.143Z" fill="black"/>
<path d="M292.921 152.246C292.921 152.246 311.905 152.246 316.775 136.132L332.755 147.53C333.859 148.317 334.776 149.302 335.452 150.426C336.128 151.55 336.548 152.788 336.686 154.066L338.195 167.932C338.195 167.932 339.904 173.081 337.951 176.217C337.951 176.217 317.75 171.501 317.263 176.889L331.363 213.158C331.363 213.158 309.456 213.606 303.615 210.013C303.615 210.013 279.761 214.49 273.92 209.565C268.079 204.641 262.238 205.089 267.084 193.891C267.084 193.891 257.346 184.934 261.73 172.397C266.114 159.859 261.973 172.621 261.973 172.621C261.973 172.621 252.518 168.368 253.005 160.307L253.979 152.246C253.979 152.246 254.03 151.979 254.167 151.5C257.137 140.888 265.11 134.993 276.321 138.75C279.598 139.842 282.948 138.589 282.948 138.589C282.948 138.589 279.291 153.142 292.921 152.246Z" fill="#252A62"/>
<path d="M337.951 167.472C337.951 167.472 336.977 199.264 336.003 203.297C335.029 207.329 320.912 219.411 313.61 219.863C313.61 219.863 305.821 236.877 297.057 234.192C288.294 231.508 287.32 217.178 291.703 215.386L320.912 198.372V164.328L337.951 167.472Z" fill="#FDB797"/>
<path opacity="0.1" d="M317.036 168.592C317.036 168.592 328.231 175.58 337.972 174.999C337.972 174.999 338.947 162.996 336.024 162.324C333.102 161.652 320.424 162.324 317.036 168.592Z" fill="black"/>
<path d="M317.036 168.144C317.036 168.144 328.231 175.132 337.972 174.55C337.972 174.55 338.947 162.547 336.024 161.875C333.102 161.203 320.424 161.875 317.036 168.144Z" fill="#252A62"/>
<path opacity="0.1" d="M301.197 126.724L281.239 129.412C281.239 129.412 281.688 133.452 281.778 138.094C285.658 139.599 289.921 140.068 294.077 139.446C298.234 138.825 302.116 137.138 305.278 134.58C303.594 132.69 302.154 130.135 301.197 126.724Z" fill="black"/>
<path d="M289.515 138.817C301.883 138.817 311.909 129.594 311.909 118.218C311.909 106.842 301.883 97.6196 289.515 97.6196C277.148 97.6196 267.122 106.842 267.122 118.218C267.122 129.594 277.148 138.817 289.515 138.817Z" fill="#FDB797"/>
<path opacity="0.1" d="M295.416 114.257C294.462 114.586 293.442 114.721 292.425 114.65C288.466 114.626 284.508 114.495 280.552 114.257C277.561 114.072 274.356 113.746 272.045 111.981C268.934 109.623 268.443 105.154 270.049 101.743C271.656 98.3312 274.933 95.8158 278.394 93.8822C280.348 92.748 282.465 91.8697 284.683 91.2725C291.092 89.6689 298.202 91.638 303.299 95.5682C308.397 99.4985 311.648 105.174 313.37 111.085C313.964 113.129 314.729 115.565 316.93 116.194C315.464 118.434 311.888 118.792 309.324 117.668C305.538 116.013 303.599 109.678 300.202 108.68C296.412 107.559 298.617 112.905 295.416 114.257Z" fill="black"/>
<path d="M295.416 113.808C294.462 114.138 293.442 114.272 292.425 114.201C288.466 114.178 284.508 114.047 280.552 113.808C277.561 113.624 274.356 113.297 272.045 111.533C268.934 109.175 268.443 104.706 270.049 101.294C271.656 97.8829 274.933 95.3675 278.394 93.4339C280.348 92.3028 282.463 91.4271 284.679 90.832C291.088 89.2285 298.198 91.1975 303.295 95.1278C308.393 99.058 311.644 104.733 313.366 110.644C313.96 112.688 314.725 115.125 316.925 115.754C315.46 117.994 311.883 118.352 309.32 117.228C305.534 115.573 303.594 109.237 300.198 108.239C296.412 107.111 298.617 112.448 295.416 113.808Z" fill="#1CD1A1"/>
<path opacity="0.1" d="M266.879 193.667C274.18 191.873 281.706 190.969 289.264 190.979L266.879 193.667Z" fill="black"/>
<path opacity="0.1" d="M317.037 169.488C317.037 169.488 309.735 174.413 311.683 177.101L317.037 169.488Z" fill="black"/>
<g opacity="0.7">
<path opacity="0.7" d="M367.16 218.294H128.139V237.521H142.051V241.271V298H353.743V241.271V237.521H367.16V218.294Z" fill="url(#paint21_linear)"/>
</g>
<path d="M351.581 229.492H144.205V298.004H351.581V229.492Z" fill="#E0E0E0"/>
<path opacity="0.1" d="M351.581 233.072H144.205V243.818H351.581V233.072Z" fill="black"/>
<path d="M364.724 221.879H130.574V240.237H364.724V221.879Z" fill="#E0E0E0"/>
<path d="M206.142 217.359H166.91C165.376 217.359 164.133 218.503 164.133 219.914V220.625C164.133 222.036 165.376 223.18 166.91 223.18H206.142C207.676 223.18 208.92 222.036 208.92 220.625V219.914C208.92 218.503 207.676 217.359 206.142 217.359Z" fill="#535461"/>
<g opacity="0.7">
<path opacity="0.7" d="M290.648 152.458H203.45C196.791 152.458 191.393 157.424 191.393 163.55V212.163C191.393 218.289 196.791 223.254 203.45 223.254H290.648C297.307 223.254 302.706 218.289 302.706 212.163V163.55C302.706 157.424 297.307 152.458 290.648 152.458Z" fill="url(#paint22_linear)"/>
</g>
<path d="M287.354 153.764H204.843C198.509 153.764 193.375 158.487 193.375 164.312V212.702C193.375 218.528 198.509 223.251 204.843 223.251H287.354C293.687 223.251 298.822 218.528 298.822 212.702V164.312C298.822 158.487 293.687 153.764 287.354 153.764Z" fill="#3E3F49"/>
<path d="M288.815 153.764H206.304C199.971 153.764 194.836 158.487 194.836 164.312V212.702C194.836 218.528 199.971 223.251 206.304 223.251H288.815C295.149 223.251 300.283 218.528 300.283 212.702V164.312C300.283 158.487 295.149 153.764 288.815 153.764Z" fill="#535461"/>
<path d="M252.484 191.168C254.367 191.168 255.894 189.764 255.894 188.031C255.894 186.299 254.367 184.895 252.484 184.895C250.601 184.895 249.075 186.299 249.075 188.031C249.075 189.764 250.601 191.168 252.484 191.168Z" fill="#E0E0E0"/>
<path opacity="0.1" d="M113.048 230.832C113.048 230.832 115.928 234.719 124.469 235.91L113.048 230.832Z" fill="black"/>
<path opacity="0.2" d="M189.282 31.4422H158.945V15.7212H189.282V31.4422ZM160.227 30.2632H188V16.9003H160.227V30.2632Z" fill="#1CD1A1"/>
<path opacity="0.2" d="M219.618 31.4422H189.282V15.7212H219.618V31.4422ZM190.564 30.2632H218.336V16.9003H190.564V30.2632Z" fill="#1CD1A1"/>
<path opacity="0.2" d="M249.955 31.4422H219.618V15.7212H249.955V31.4422ZM220.9 30.2632H248.673V16.9003H220.9V30.2632Z" fill="#1CD1A1"/>
<path opacity="0.2" d="M280.291 31.4422H249.955V15.7212H280.291V31.4422ZM251.236 30.2632H279.009V16.9003H251.236V30.2632Z" fill="#1CD1A1"/>
<path opacity="0.2" d="M249.955 15.721H219.618V0H249.955V15.721ZM220.9 14.542H248.673V1.17908H220.9V14.542Z" fill="#1CD1A1"/>
<path opacity="0.2" d="M219.618 15.721H189.282V0H219.618V15.721ZM190.564 14.542H218.336V1.17908H190.564V14.542Z" fill="#1CD1A1"/>
<path opacity="0.2" d="M76.9091 31.4422H46.5728V15.7212H76.9091V31.4422ZM47.8546 30.2632H75.6273V16.9003H47.8546V30.2632Z" fill="#1CD1A1"/>
<path opacity="0.2" d="M107.246 31.4422H76.9092V15.7212H107.246V31.4422ZM78.191 30.2632H105.964V16.9003H78.191V30.2632Z" fill="#1CD1A1"/>
<path opacity="0.2" d="M107.246 15.721H76.9092V0H107.246V15.721ZM78.191 14.542H105.964V1.17908H78.191V14.542Z" fill="#1CD1A1"/>
<path opacity="0.2" d="M341.818 31.4422H311.482V15.7212H341.818V31.4422ZM312.764 30.2632H340.537V16.9003H312.764V30.2632Z" fill="#1CD1A1"/>
<path opacity="0.2" d="M372.155 31.4422H341.818V15.7212H372.155V31.4422ZM343.1 30.2632H370.873V16.9003H343.1V30.2632Z" fill="#1CD1A1"/>
<path opacity="0.2" d="M372.155 15.721H341.818V0H372.155V15.721ZM343.1 14.542H370.873V1.17908H343.1V14.542Z" fill="#1CD1A1"/>
</g>
<defs>
<linearGradient id="paint0_linear" x1="113.057" y1="266.114" x2="166.812" y2="266.114" gradientUnits="userSpaceOnUse">
<stop stop-color="#808080" stop-opacity="0.25"/>
<stop offset="0.54" stop-color="#808080" stop-opacity="0.12"/>
<stop offset="1" stop-color="#808080" stop-opacity="0.1"/>
</linearGradient>
<linearGradient id="paint1_linear" x1="30379.9" y1="64637.7" x2="43332.8" y2="64637.7" gradientUnits="userSpaceOnUse">
<stop stop-color="#808080" stop-opacity="0.25"/>
<stop offset="0.54" stop-color="#808080" stop-opacity="0.12"/>
<stop offset="1" stop-color="#808080" stop-opacity="0.1"/>
</linearGradient>
<linearGradient id="paint2_linear" x1="30379.9" y1="64384.5" x2="43332.8" y2="64384.5" gradientUnits="userSpaceOnUse">
<stop stop-color="#808080" stop-opacity="0.25"/>
<stop offset="0.54" stop-color="#808080" stop-opacity="0.12"/>
<stop offset="1" stop-color="#808080" stop-opacity="0.1"/>
</linearGradient>
<linearGradient id="paint3_linear" x1="17264.1" y1="18305.2" x2="20647.5" y2="18305.2" gradientUnits="userSpaceOnUse">
<stop stop-color="#808080" stop-opacity="0.25"/>
<stop offset="0.54" stop-color="#808080" stop-opacity="0.12"/>
<stop offset="1" stop-color="#808080" stop-opacity="0.1"/>
</linearGradient>
<linearGradient id="paint4_linear" x1="21877" y1="82428" x2="31914.3" y2="82428" gradientUnits="userSpaceOnUse">
<stop stop-color="#808080" stop-opacity="0.25"/>
<stop offset="0.54" stop-color="#808080" stop-opacity="0.12"/>
<stop offset="1" stop-color="#808080" stop-opacity="0.1"/>
</linearGradient>
<linearGradient id="paint5_linear" x1="21719.4" y1="82428" x2="31756.1" y2="82428" gradientUnits="userSpaceOnUse">
<stop stop-color="#808080" stop-opacity="0.25"/>
<stop offset="0.54" stop-color="#808080" stop-opacity="0.12"/>
<stop offset="1" stop-color="#808080" stop-opacity="0.1"/>
</linearGradient>
<linearGradient id="paint6_linear" x1="19913.2" y1="66008.9" x2="28579.8" y2="66008.9" gradientUnits="userSpaceOnUse">
<stop stop-color="#808080" stop-opacity="0.25"/>
<stop offset="0.54" stop-color="#808080" stop-opacity="0.12"/>
<stop offset="1" stop-color="#808080" stop-opacity="0.1"/>
</linearGradient>
<linearGradient id="paint7_linear" x1="33885.3" y1="59916.9" x2="44023.4" y2="59916.9" gradientUnits="userSpaceOnUse">
<stop stop-color="#808080" stop-opacity="0.25"/>
<stop offset="0.54" stop-color="#808080" stop-opacity="0.12"/>
<stop offset="1" stop-color="#808080" stop-opacity="0.1"/>
</linearGradient>
<linearGradient id="paint8_linear" x1="34040.8" y1="59916.9" x2="44178.2" y2="59916.9" gradientUnits="userSpaceOnUse">
<stop stop-color="#808080" stop-opacity="0.25"/>
<stop offset="0.54" stop-color="#808080" stop-opacity="0.12"/>
<stop offset="1" stop-color="#808080" stop-opacity="0.1"/>
</linearGradient>
<linearGradient id="paint9_linear" x1="6045.23" y1="12351.2" x2="6775.08" y2="12351.2" gradientUnits="userSpaceOnUse">
<stop stop-color="#808080" stop-opacity="0.25"/>
<stop offset="0.54" stop-color="#808080" stop-opacity="0.12"/>
<stop offset="1" stop-color="#808080" stop-opacity="0.1"/>
</linearGradient>
<linearGradient id="paint10_linear" x1="5091.13" y1="7637.3" x2="5437.94" y2="7637.3" gradientUnits="userSpaceOnUse">
<stop stop-color="#808080" stop-opacity="0.25"/>
<stop offset="0.54" stop-color="#808080" stop-opacity="0.12"/>
<stop offset="1" stop-color="#808080" stop-opacity="0.1"/>
</linearGradient>
<linearGradient id="paint11_linear" x1="2720.65" y1="17082" x2="2769.39" y2="17082" gradientUnits="userSpaceOnUse">
<stop stop-color="#808080" stop-opacity="0.25"/>
<stop offset="0.54" stop-color="#808080" stop-opacity="0.12"/>
<stop offset="1" stop-color="#808080" stop-opacity="0.1"/>
</linearGradient>
<linearGradient id="paint12_linear" x1="3204.83" y1="18019.2" x2="3357.47" y2="18019.2" gradientUnits="userSpaceOnUse">
<stop stop-color="#808080" stop-opacity="0.25"/>
<stop offset="0.54" stop-color="#808080" stop-opacity="0.12"/>
<stop offset="1" stop-color="#808080" stop-opacity="0.1"/>
</linearGradient>
<linearGradient id="paint13_linear" x1="9268.42" y1="7600.23" x2="10514.3" y2="7600.23" gradientUnits="userSpaceOnUse">
<stop stop-color="#808080" stop-opacity="0.25"/>
<stop offset="0.54" stop-color="#808080" stop-opacity="0.12"/>
<stop offset="1" stop-color="#808080" stop-opacity="0.1"/>
</linearGradient>
<linearGradient id="paint14_linear" x1="13810.7" y1="7032.97" x2="15816.3" y2="7032.97" gradientUnits="userSpaceOnUse">
<stop stop-color="#808080" stop-opacity="0.25"/>
<stop offset="0.54" stop-color="#808080" stop-opacity="0.12"/>
<stop offset="1" stop-color="#808080" stop-opacity="0.1"/>
</linearGradient>
<linearGradient id="paint15_linear" x1="16758.9" y1="11044.2" x2="21852.1" y2="11044.2" gradientUnits="userSpaceOnUse">
<stop stop-color="#808080" stop-opacity="0.25"/>
<stop offset="0.54" stop-color="#808080" stop-opacity="0.12"/>
<stop offset="1" stop-color="#808080" stop-opacity="0.1"/>
</linearGradient>
<linearGradient id="paint16_linear" x1="24468.7" y1="14528.2" x2="31751.2" y2="14528.2" gradientUnits="userSpaceOnUse">
<stop stop-color="#808080" stop-opacity="0.25"/>
<stop offset="0.54" stop-color="#808080" stop-opacity="0.12"/>
<stop offset="1" stop-color="#808080" stop-opacity="0.1"/>
</linearGradient>
<linearGradient id="paint17_linear" x1="24394.3" y1="14470.3" x2="31674.7" y2="14470.3" gradientUnits="userSpaceOnUse">
<stop stop-color="#808080" stop-opacity="0.25"/>
<stop offset="0.54" stop-color="#808080" stop-opacity="0.12"/>
<stop offset="1" stop-color="#808080" stop-opacity="0.1"/>
</linearGradient>
<linearGradient id="paint18_linear" x1="15460" y1="12888.7" x2="17750" y2="12888.7" gradientUnits="userSpaceOnUse">
<stop stop-color="#808080" stop-opacity="0.25"/>
<stop offset="0.54" stop-color="#808080" stop-opacity="0.12"/>
<stop offset="1" stop-color="#808080" stop-opacity="0.1"/>
</linearGradient>
<linearGradient id="paint19_linear" x1="15460" y1="12929" x2="17750" y2="12929" gradientUnits="userSpaceOnUse">
<stop stop-color="#808080" stop-opacity="0.25"/>
<stop offset="0.54" stop-color="#808080" stop-opacity="0.12"/>
<stop offset="1" stop-color="#808080" stop-opacity="0.1"/>
</linearGradient>
<linearGradient id="paint20_linear" x1="96645.9" y1="108777" x2="96645.9" y2="43332.1" gradientUnits="userSpaceOnUse">
<stop stop-color="#808080" stop-opacity="0.25"/>
<stop offset="0.54" stop-color="#808080" stop-opacity="0.12"/>
<stop offset="1" stop-color="#808080" stop-opacity="0.1"/>
</linearGradient>
<linearGradient id="paint21_linear" x1="138664" y1="60652.7" x2="138664" y2="44488.4" gradientUnits="userSpaceOnUse">
<stop stop-color="#808080" stop-opacity="0.25"/>
<stop offset="0.54" stop-color="#808080" stop-opacity="0.12"/>
<stop offset="1" stop-color="#808080" stop-opacity="0.1"/>
</linearGradient>
<linearGradient id="paint22_linear" x1="64552.7" y1="40367.3" x2="64552.7" y2="27614.8" gradientUnits="userSpaceOnUse">
<stop stop-color="#808080" stop-opacity="0.25"/>
<stop offset="0.54" stop-color="#808080" stop-opacity="0.12"/>
<stop offset="1" stop-color="#808080" stop-opacity="0.1"/>
</linearGradient>
<clipPath id="clip0">
<rect width="423" height="298" fill="white"/>
</clipPath>
</defs>
</svg>
