<svg width="40" height="40" viewBox="0 0 40 40" fill="none" xmlns="http://www.w3.org/2000/svg">
<path fill-rule="evenodd" clip-rule="evenodd" d="M3.33301 19.9987C3.33301 10.7987 10.7997 3.33203 19.9997 3.33203C29.1997 3.33203 36.6663 10.7987 36.6663 19.9987C36.6663 29.1987 29.1997 36.6654 19.9997 36.6654C10.7997 36.6654 3.33301 29.1987 3.33301 19.9987ZM21.6663 26.6654V29.9987H18.333V26.6654H21.6663ZM19.9997 33.332C12.6497 33.332 6.66634 27.3487 6.66634 19.9987C6.66634 12.6487 12.6497 6.66536 19.9997 6.66536C27.3497 6.66536 33.333 12.6487 33.333 19.9987C33.333 27.3487 27.3497 33.332 19.9997 33.332ZM13.333 16.6654C13.333 12.982 16.3163 9.9987 19.9997 9.9987C23.683 9.9987 26.6663 12.982 26.6663 16.6654C26.6663 18.8036 25.3496 19.9542 24.0676 21.0746C22.8514 22.1375 21.6663 23.1731 21.6663 24.9987H18.333C18.333 21.9632 19.9032 20.7597 21.2837 19.7015C22.3667 18.8714 23.333 18.1307 23.333 16.6654C23.333 14.832 21.833 13.332 19.9997 13.332C18.1663 13.332 16.6663 14.832 16.6663 16.6654H13.333Z" fill="#FF7E07"/>
</svg>
