<svg width="40" height="40" viewBox="0 0 40 40" fill="none" xmlns="http://www.w3.org/2000/svg">
<path d="M20 1.25C9.64469 1.25 1.25 9.64469 1.25 20C1.25 30.3553 9.64469 38.75 20 38.75C30.3553 38.75 38.75 30.3553 38.75 20C38.75 9.64469 30.3553 1.25 20 1.25ZM31.4905 31.4905C28.6413 34.3312 24.8366 36.0093 20.8176 36.198C16.7987 36.3866 12.8535 35.0723 9.75073 32.511C6.64795 29.9497 4.60989 26.325 4.03366 22.3432C3.45743 18.3613 4.3843 14.3075 6.63368 10.9717C8.88307 7.63589 12.2938 5.25702 16.2013 4.29861C20.1089 3.34021 24.2333 3.87092 27.7709 5.78734C31.3085 7.70376 34.0059 10.8686 35.3375 14.6652C36.6691 18.4618 36.5395 22.6182 34.974 26.3245C34.1581 28.2557 32.975 30.0101 31.4905 31.4905Z" fill="#5D5A93"/>
<path d="M20 21.875C17.8451 21.875 15.7785 22.731 14.2548 24.2548C12.731 25.7785 11.875 27.8451 11.875 30H28.125C28.125 27.8451 27.269 25.7785 25.7452 24.2548C24.2215 22.731 22.1549 21.875 20 21.875Z" fill="#5D5A93"/>
<path d="M9.16992 14.6849L10.8309 12.8164L16.4559 17.8164L14.795 19.685L9.16992 14.6849Z" fill="#5D5A93"/>
<path d="M23.1279 18.2305L28.1279 12.6055L29.9965 14.2664L24.9965 19.8914L23.1279 18.2305Z" fill="#5D5A93"/>
</svg>
